<svg width="26" height="26" viewBox="0 0 26 26" fill="none" xmlns="http://www.w3.org/2000/svg">
<path fill-rule="evenodd" clip-rule="evenodd" d="M4.25893 3.95327C5.16829 3.83024 6.28185 3.80868 7.62117 3.80615C7.70075 2.77054 8.16836 1.80315 8.93048 1.09746C9.6926 0.391775 10.693 -0.000176561 11.7317 5.96656e-08H14.2683C15.3065 0.000118371 16.3065 0.392036 17.0683 1.09743C17.8301 1.80281 18.2977 2.76971 18.3776 3.80488C19.7181 3.80868 20.8317 3.83024 21.7411 3.95327C22.8825 4.10546 23.8439 4.43522 24.6074 5.19746C25.3709 5.96098 25.6981 6.92234 25.8529 8.0638C26 9.16341 26 10.5623 26 12.2961V17.5088C26 19.2425 26 20.6415 25.8529 21.7411C25.6981 22.8825 25.3709 23.8439 24.6074 24.6074C23.8439 25.3709 22.8825 25.6981 21.7411 25.8529C20.6415 26 19.2425 26 17.5088 26H8.49122C6.75746 26 5.35854 26 4.25893 25.8529C3.11746 25.6981 2.1561 25.3709 1.39259 24.6074C0.629073 23.8439 0.301854 22.8825 0.14839 21.7411C-1.8899e-08 20.6415 0 19.2425 0 17.5088V12.2961C0 10.5623 -1.8899e-08 9.16341 0.14839 8.0638C0.300585 6.92234 0.630342 5.96098 1.39259 5.19746C2.1561 4.43395 3.11746 4.10673 4.25893 3.95327ZM16.465 3.80488H9.53502C9.61127 3.27665 9.8753 2.79358 10.2787 2.44418C10.6822 2.09478 11.198 1.90245 11.7317 1.90244H14.2683C14.802 1.90245 15.3178 2.09478 15.7213 2.44418C16.1247 2.79358 16.3887 3.27665 16.465 3.80488ZM4.51259 23.9669C3.58166 23.8414 3.08956 23.6118 2.73824 23.2618C2.38693 22.9104 2.15863 22.4183 2.03307 21.4861C1.90498 20.5286 1.90244 19.259 1.90244 17.439V13.1649C6.5799 15.1282 9.3118 16.2012 12.1883 16.3356C12.7286 16.361 13.2714 16.361 13.8117 16.3356C16.6882 16.2012 19.4201 15.1282 24.0976 13.1649V17.439C24.0976 19.259 24.095 20.5286 23.9669 21.4874C23.8414 22.4183 23.6118 22.9104 23.2618 23.2618C22.9104 23.6131 22.4183 23.8414 21.4861 23.9669C20.5286 24.095 19.259 24.0976 17.439 24.0976H8.56098C6.74098 24.0976 5.47015 24.095 4.51259 23.9669ZM24.095 11.1014C18.8633 13.3019 16.347 14.3127 13.7229 14.4344C13.241 14.4573 12.759 14.4573 12.2771 14.4344C9.65171 14.3127 7.13668 13.3019 1.90498 11.1014C1.91132 9.93073 1.93668 9.03658 2.03307 8.31746C2.15863 7.38654 2.3882 6.89444 2.73824 6.54312C3.08956 6.1918 3.58166 5.96351 4.51385 5.83795C5.47015 5.70985 6.74098 5.70732 8.56098 5.70732H17.439C19.259 5.70732 20.5286 5.70985 21.4874 5.83795C22.4183 5.96351 22.9104 6.19307 23.2618 6.54312C23.6131 6.89444 23.8414 7.38654 23.9669 8.31873C24.0633 9.03658 24.0887 9.92946 24.095 11.1014Z" fill="#00ABE1"/>
</svg>
