<svg width="344" height="420" viewBox="0 0 344 420" fill="none" xmlns="http://www.w3.org/2000/svg">
<path d="M343.985 207.331C343.992 207.907 343.996 208.483 343.998 209.059L343.57 209.061C343.571 209.348 343.572 209.636 343.572 209.924C343.572 210.212 343.571 210.5 343.57 210.787L343.998 210.789C343.996 211.366 343.992 211.941 343.985 212.517L343.557 212.512C343.55 213.086 343.542 213.66 343.531 214.233L343.959 214.241C343.948 214.815 343.935 215.389 343.92 215.962L343.492 215.951C343.485 216.203 343.478 216.456 343.47 216.709C343.461 217.028 343.45 217.346 343.44 217.665L343.868 217.68C343.848 218.251 343.826 218.823 343.803 219.393L343.375 219.376C343.351 219.947 343.325 220.517 343.297 221.087L343.725 221.108C343.696 221.684 343.665 222.259 343.633 222.834L343.205 222.809C343.172 223.383 343.137 223.956 343.1 224.528L343.528 224.555C343.491 225.129 343.451 225.701 343.41 226.273L342.983 226.243C342.941 226.813 342.898 227.384 342.852 227.953L343.279 227.988C343.233 228.558 343.185 229.129 343.135 229.698L342.709 229.66C342.659 230.229 342.606 230.797 342.552 231.364L342.979 231.404C342.924 231.978 342.867 232.551 342.808 233.124L342.381 233.08C342.322 233.651 342.261 234.222 342.198 234.792L342.623 234.839C342.56 235.41 342.494 235.981 342.426 236.551L342.001 236.5C341.933 237.068 341.863 237.636 341.791 238.203L342.216 238.257C342.144 238.826 342.07 239.393 341.994 239.96L341.569 239.903C341.53 240.192 341.49 240.482 341.45 240.771C341.412 241.047 341.373 241.322 341.334 241.598L341.758 241.658C341.677 242.228 341.593 242.797 341.508 243.366L341.084 243.302C340.999 243.87 340.911 244.437 340.821 245.004L341.244 245.071C341.154 245.638 341.062 246.205 340.968 246.771L340.545 246.701C340.451 247.266 340.355 247.83 340.256 248.393L340.678 248.467C340.58 249.031 340.479 249.595 340.376 250.158L339.955 250.081C339.852 250.642 339.748 251.203 339.641 251.763L340.062 251.844C339.954 252.409 339.844 252.973 339.732 253.536L339.312 253.452C339.2 254.016 339.086 254.578 338.97 255.14L339.389 255.227C339.273 255.789 339.154 256.351 339.034 256.912L338.615 256.822C338.494 257.382 338.372 257.941 338.247 258.499L338.665 258.593C338.54 259.152 338.413 259.71 338.284 260.268L337.867 260.171C337.738 260.728 337.607 261.283 337.474 261.838L337.89 261.938C337.756 262.497 337.62 263.055 337.482 263.612L337.066 263.509C336.928 264.066 336.787 264.623 336.645 265.178L337.06 265.285C336.917 265.841 336.772 266.397 336.625 266.952L336.211 266.842C336.064 267.396 335.916 267.948 335.765 268.5L336.178 268.613C336.027 269.166 335.874 269.718 335.718 270.269L335.306 270.152C335.151 270.702 334.994 271.251 334.835 271.799L335.246 271.919C335.086 272.471 334.924 273.022 334.759 273.572L334.349 273.449C334.184 273.999 334.018 274.548 333.849 275.096L334.259 275.222C334.09 275.771 333.919 276.319 333.746 276.866L333.337 276.737C333.164 277.283 332.99 277.828 332.813 278.372L333.22 278.505C333.043 279.05 332.864 279.594 332.683 280.137L332.276 280.001C332.095 280.543 331.912 281.084 331.727 281.624L332.133 281.763C331.946 282.306 331.758 282.849 331.568 283.391L331.163 283.249C330.973 283.79 330.781 284.331 330.586 284.87L330.989 285.015C330.794 285.556 330.598 286.095 330.399 286.633L329.997 286.485C329.798 287.022 329.598 287.558 329.395 288.093L329.796 288.244C329.593 288.78 329.388 289.315 329.181 289.849L328.782 289.694C328.691 289.929 328.599 290.164 328.508 290.398C328.391 290.695 328.274 290.992 328.156 291.289L328.555 291.447C328.342 291.982 328.128 292.515 327.912 293.047L327.515 292.886C327.299 293.418 327.081 293.948 326.862 294.477L327.257 294.642C327.037 295.172 326.815 295.701 326.59 296.229L326.196 296.062C325.972 296.589 325.746 297.114 325.518 297.639L325.911 297.81C325.683 298.335 325.453 298.86 325.22 299.383L324.829 299.209C324.597 299.732 324.363 300.253 324.127 300.773L324.518 300.95C324.28 301.474 324.041 301.996 323.799 302.518L323.41 302.338C323.169 302.858 322.926 303.377 322.681 303.895L323.069 304.079C322.823 304.598 322.576 305.115 322.326 305.632L321.94 305.446C321.692 305.961 321.441 306.475 321.188 306.989L321.572 307.178C321.319 307.692 321.064 308.205 320.807 308.716L320.424 308.524C320.167 309.035 319.908 309.545 319.647 310.053L320.029 310.249C319.766 310.76 319.502 311.271 319.236 311.78L318.856 311.581C318.59 312.089 318.323 312.596 318.053 313.101L318.431 313.303C318.161 313.81 317.889 314.315 317.615 314.819L317.238 314.614C316.965 315.117 316.69 315.618 316.412 316.118L316.787 316.326C316.509 316.827 316.23 317.327 315.948 317.826L315.575 317.615C315.293 318.113 315.01 318.61 314.725 319.106L315.096 319.32C314.809 319.818 314.521 320.315 314.23 320.81L313.861 320.594C313.571 321.088 313.279 321.581 312.985 322.073L313.353 322.293C313.059 322.785 312.762 323.277 312.464 323.766L312.098 323.544C311.801 324.033 311.502 324.52 311.2 325.006L311.565 325.232C311.263 325.719 310.959 326.205 310.654 326.689L310.291 326.46C309.986 326.945 309.678 327.428 309.369 327.91L309.729 328.141C309.419 328.625 309.106 329.107 308.792 329.587L308.434 329.353C308.12 329.832 307.804 330.311 307.487 330.787L307.844 331.025C307.526 331.502 307.206 331.978 306.885 332.453L306.53 332.213C306.209 332.687 305.886 333.159 305.562 333.63L305.914 333.873C305.589 334.344 305.262 334.815 304.934 335.283L304.583 335.037C304.254 335.507 303.922 335.974 303.59 336.441L303.938 336.69C303.605 337.157 303.269 337.623 302.932 338.088L302.585 337.836C302.248 338.3 301.91 338.762 301.57 339.222L301.914 339.477C301.573 339.938 301.231 340.398 300.886 340.856L300.544 340.599C300.2 341.056 299.855 341.512 299.507 341.966L299.848 342.226C299.5 342.681 299.15 343.135 298.798 343.587L298.46 343.324C298.108 343.777 297.754 344.228 297.398 344.677L297.734 344.943C297.378 345.394 297.02 345.842 296.66 346.29L296.327 346.021C295.967 346.467 295.607 346.912 295.244 347.355L295.576 347.626C295.213 348.07 294.848 348.512 294.481 348.953L294.152 348.679C293.786 349.119 293.418 349.557 293.049 349.993L293.376 350.27C293.005 350.708 292.633 351.144 292.259 351.578L291.934 351.299C291.56 351.733 291.185 352.166 290.807 352.597L291.13 352.879C290.751 353.311 290.372 353.742 289.99 354.17L289.67 353.886C289.289 354.313 288.907 354.739 288.523 355.164L288.841 355.451C288.456 355.876 288.069 356.3 287.681 356.721L287.366 356.431C287.159 356.656 286.952 356.88 286.745 357.103C286.563 357.299 286.381 357.494 286.199 357.689L286.512 357.981C286.119 358.401 285.725 358.818 285.33 359.233L285.019 358.938C284.624 359.353 284.228 359.766 283.829 360.178L284.137 360.476C283.738 360.888 283.337 361.299 282.934 361.708L282.629 361.407C282.228 361.815 281.824 362.221 281.419 362.626L281.722 362.929C281.316 363.334 280.909 363.738 280.5 364.139L280.2 363.834C279.792 364.234 279.382 364.633 278.971 365.031L279.269 365.339C278.855 365.738 278.441 366.135 278.024 366.53L277.729 366.219C277.314 366.614 276.897 367.007 276.478 367.397L276.771 367.71C276.351 368.102 275.93 368.492 275.508 368.88L275.218 368.564C274.796 368.951 274.373 369.336 273.948 369.719L274.235 370.038C273.809 370.422 273.382 370.804 272.953 371.184L272.669 370.864C272.241 371.243 271.811 371.621 271.38 371.997L271.661 372.32C271.228 372.697 270.794 373.073 270.358 373.446L270.08 373.121C269.645 373.494 269.208 373.864 268.77 374.233L269.046 374.561C268.607 374.93 268.167 375.298 267.725 375.664L267.452 375.334C267.011 375.698 266.569 376.061 266.125 376.422L266.395 376.755C265.95 377.117 265.504 377.476 265.056 377.834L264.788 377.499C264.341 377.857 263.892 378.212 263.442 378.566L263.706 378.903C263.255 379.257 262.802 379.609 262.348 379.96L262.086 379.621C261.633 379.97 261.178 380.318 260.721 380.663L260.98 381.005C260.523 381.351 260.064 381.696 259.604 382.038L259.348 381.694C258.889 382.036 258.428 382.375 257.966 382.713L258.219 383.059C257.756 383.397 257.291 383.733 256.825 384.067L256.576 383.719C256.11 384.053 255.643 384.385 255.175 384.714L255.422 385.065C254.953 385.395 254.482 385.723 254.01 386.049L253.767 385.697C253.296 386.022 252.823 386.346 252.35 386.667L252.59 387.021C252.115 387.343 251.639 387.663 251.162 387.981L250.924 387.624C250.448 387.942 249.97 388.257 249.491 388.569L249.725 388.928C249.245 389.242 248.763 389.553 248.28 389.862L248.049 389.502C247.567 389.81 247.083 390.117 246.599 390.421L246.827 390.784C246.341 391.089 245.854 391.392 245.365 391.693L245.141 391.328C244.653 391.629 244.164 391.927 243.674 392.222L243.896 392.589C243.405 392.886 242.912 393.18 242.419 393.472L242.2 393.103C241.959 393.246 241.718 393.388 241.476 393.53C241.224 393.677 240.971 393.825 240.719 393.971L240.934 394.342C240.437 394.629 239.94 394.915 239.441 395.198L239.229 394.826C238.732 395.108 238.233 395.389 237.733 395.667L237.941 396.041C237.44 396.32 236.937 396.597 236.433 396.871L236.229 396.495C235.726 396.769 235.222 397.04 234.717 397.309L234.918 397.687C234.412 397.957 233.904 398.225 233.396 398.49L233.198 398.11C232.69 398.375 232.181 398.638 231.671 398.898L231.866 399.279C231.355 399.54 230.843 399.798 230.33 400.054L230.139 399.671C229.627 399.927 229.114 400.18 228.6 400.431L228.787 400.816C228.272 401.067 227.755 401.316 227.237 401.563L227.053 401.176C226.536 401.423 226.018 401.667 225.499 401.908L225.68 402.297C225.16 402.539 224.638 402.779 224.116 403.017L223.939 402.627C223.418 402.864 222.896 403.098 222.373 403.33L222.546 403.722C222.022 403.954 221.497 404.185 220.971 404.412L220.801 404.019C220.276 404.247 219.75 404.472 219.223 404.694L219.39 405.089C218.861 405.312 218.332 405.533 217.801 405.751L217.638 405.355C217.108 405.573 216.578 405.789 216.046 406.002L216.206 406.399C215.673 406.613 215.139 406.824 214.604 407.033L214.448 406.634C213.916 406.842 213.382 407.048 212.847 407.251L213 407.651C212.464 407.855 211.927 408.056 211.389 408.255L211.241 407.853C210.704 408.051 210.167 408.247 209.628 408.441L209.773 408.844C209.233 409.038 208.692 409.229 208.15 409.418L208.009 409.014C207.468 409.203 206.926 409.389 206.384 409.573L206.521 409.978C205.978 410.163 205.433 410.344 204.887 410.523L204.754 410.116C204.211 410.295 203.667 410.471 203.122 410.644L203.252 411.052C202.706 411.226 202.16 411.397 201.612 411.566L201.485 411.157C200.939 411.325 200.391 411.491 199.842 411.655L199.965 412.066C199.415 412.23 198.864 412.391 198.312 412.55L198.194 412.138C197.643 412.297 197.092 412.453 196.539 412.607L196.654 413.02C196.102 413.173 195.548 413.325 194.994 413.473L194.883 413.059C194.332 413.207 193.779 413.353 193.226 413.496L193.333 413.911C192.778 414.054 192.223 414.195 191.666 414.333L191.563 413.918C191.007 414.056 190.451 414.191 189.894 414.324L189.994 414.741C189.436 414.875 188.876 415.005 188.316 415.134L188.221 414.716C187.662 414.844 187.102 414.97 186.541 415.093L186.633 415.511C186.074 415.634 185.514 415.754 184.953 415.872L184.866 415.452C184.307 415.569 183.747 415.684 183.187 415.796L183.271 416.216C182.709 416.329 182.146 416.439 181.583 416.546L181.503 416.125C180.94 416.232 180.377 416.337 179.814 416.439L179.89 416.861C179.325 416.963 178.759 417.063 178.192 417.16L178.12 416.738C177.555 416.834 176.988 416.929 176.422 417.021L176.49 417.443C175.926 417.535 175.361 417.624 174.796 417.71L174.731 417.286C174.167 417.372 173.601 417.456 173.036 417.537L173.096 417.961C172.529 418.042 171.961 418.121 171.392 418.197L171.336 417.772C170.768 417.848 170.2 417.921 169.631 417.992L169.684 418.417C169.114 418.488 168.543 418.556 167.971 418.622L167.922 418.196C167.353 418.262 166.783 418.325 166.213 418.385L166.258 418.811C165.69 418.871 165.121 418.928 164.551 418.983L164.51 418.557C163.942 418.611 163.373 418.663 162.804 418.713L162.841 419.14C162.27 419.19 161.698 419.237 161.126 419.281L161.093 418.854C160.522 418.898 159.95 418.94 159.378 418.98L159.408 419.407C158.834 419.446 158.26 419.483 157.685 419.517L157.659 419.09C157.088 419.123 156.516 419.155 155.944 419.183L155.965 419.611C155.395 419.64 154.824 419.666 154.253 419.689L154.235 419.261C153.665 419.285 153.094 419.306 152.523 419.324L152.536 419.752C151.963 419.77 151.39 419.786 150.816 419.799L150.806 419.371C150.234 419.384 149.66 419.394 149.086 419.402L149.092 419.83C148.517 419.838 147.941 419.844 147.365 419.846L147.363 419.418C147.075 419.419 146.788 419.42 146.5 419.42C146.212 419.42 145.925 419.419 145.637 419.418L145.635 419.846C145.059 419.844 144.483 419.838 143.908 419.83L143.914 419.402C143.34 419.394 142.766 419.384 142.194 419.371L142.184 419.799C141.61 419.786 141.037 419.77 140.464 419.752L140.478 419.324C139.906 419.306 139.335 419.285 138.765 419.261L138.747 419.689C138.176 419.666 137.605 419.64 137.035 419.611L137.056 419.183C136.484 419.155 135.912 419.123 135.341 419.09L135.315 419.517C134.74 419.483 134.166 419.446 133.592 419.407L133.622 418.98C133.05 418.94 132.478 418.898 131.907 418.854L131.874 419.281C131.302 419.237 130.73 419.19 130.159 419.14L130.196 418.713C129.627 418.663 129.058 418.611 128.49 418.557L128.449 418.983C127.879 418.928 127.31 418.871 126.742 418.811L126.787 418.385C126.217 418.325 125.647 418.262 125.078 418.196L125.029 418.622C124.457 418.556 123.886 418.488 123.316 418.417L123.369 417.992C122.8 417.921 122.232 417.848 121.664 417.772L121.608 418.197C121.039 418.121 120.471 418.042 119.904 417.961L119.964 417.537C119.398 417.456 118.833 417.372 118.269 417.286L118.204 417.71C117.639 417.624 117.074 417.535 116.51 417.443L116.578 417.021C116.011 416.929 115.445 416.834 114.88 416.738L114.808 417.16C114.241 417.063 113.675 416.963 113.11 416.861L113.186 416.439C112.622 416.337 112.059 416.232 111.497 416.125L111.417 416.546C110.854 416.439 110.291 416.329 109.729 416.216L109.813 415.796C109.569 415.747 109.325 415.698 109.081 415.648C108.765 415.584 108.45 415.518 108.134 415.452L108.046 415.872C107.486 415.754 106.926 415.634 106.367 415.511L106.458 415.093C105.898 414.97 105.338 414.844 104.779 414.716L104.684 415.134C104.124 415.005 103.564 414.874 103.006 414.741L103.106 414.324C102.549 414.191 101.992 414.056 101.437 413.918L101.334 414.333C100.777 414.195 100.222 414.054 99.6669 413.911L99.7741 413.496C99.2207 413.353 98.6682 413.207 98.1166 413.059L98.0056 413.473C97.4514 413.324 96.8981 413.173 96.3459 413.02L96.4607 412.607C95.9082 412.453 95.3567 412.297 94.8062 412.138L94.6875 412.55C94.1357 412.391 93.5848 412.229 93.0349 412.065L93.1574 411.655C92.6087 411.491 92.0611 411.325 91.5144 411.157L91.3882 411.566C90.8403 411.397 90.2933 411.226 89.7473 411.052L89.8773 410.644C89.3326 410.47 88.7888 410.295 88.2461 410.116L88.1124 410.523C87.5668 410.344 87.0222 410.163 86.4786 409.978L86.616 409.573C86.0732 409.389 85.5315 409.203 84.9907 409.014L84.8496 409.418C84.3076 409.229 83.7667 409.038 83.2268 408.844L83.3716 408.441C82.833 408.247 82.2954 408.051 81.7588 407.853L81.6103 408.255C81.0725 408.056 80.5358 407.855 80.0001 407.651L80.1523 407.251C79.6177 407.048 79.0841 406.842 78.5516 406.634L78.3958 407.033C77.8608 406.824 77.3268 406.613 76.794 406.399L76.9535 406.002C76.4218 405.788 75.8913 405.573 75.3619 405.355L75.1988 405.751C74.6682 405.533 74.1387 405.312 73.6103 405.089L73.7769 404.694C73.2497 404.471 72.7237 404.246 72.1987 404.019L72.0285 404.412C71.5023 404.184 70.9773 403.954 70.4534 403.722L70.6272 403.33C70.1041 403.098 69.5821 402.863 69.0612 402.627L68.8839 403.017C68.3613 402.779 67.8399 402.539 67.3197 402.297L67.5005 401.908C66.9815 401.667 66.4636 401.423 65.9469 401.176L65.7625 401.563C65.2446 401.316 64.7279 401.067 64.2124 400.816L64.4003 400.431C63.8859 400.18 63.3728 399.926 62.8608 399.671L62.6695 400.054C62.1564 399.798 61.6445 399.54 61.1339 399.279L61.3286 398.898C60.8186 398.638 60.3098 398.375 59.8023 398.11L59.6042 398.49C59.0954 398.225 58.5879 397.957 58.0816 397.687L58.2831 397.309C57.7779 397.04 57.274 396.768 56.7713 396.495L56.5664 396.871C56.0626 396.597 55.5601 396.32 55.0588 396.041L55.2671 395.667C54.7669 395.389 54.268 395.108 53.7704 394.826L53.5588 395.198C53.0601 394.915 52.5626 394.629 52.0664 394.342L52.2813 393.971C51.786 393.684 51.2921 393.395 50.7995 393.103L50.5813 393.472C50.0876 393.18 49.5952 392.886 49.1041 392.589L49.3255 392.222C48.8355 391.926 48.3468 391.628 47.8594 391.328L47.6348 391.693C47.1463 391.392 46.6591 391.089 46.1733 390.784L46.4012 390.421C45.9164 390.117 45.433 389.81 44.951 389.502L44.7199 389.862C44.2369 389.553 43.7552 389.242 43.2749 388.928L43.5091 388.569C43.0299 388.256 42.5521 387.941 42.0756 387.624L41.8383 387.981C41.3608 387.663 40.8847 387.343 40.4099 387.021L40.6504 386.667C40.1766 386.346 39.7043 386.022 39.2334 385.697L38.9898 386.049C38.5178 385.723 38.0472 385.395 37.578 385.065L37.8247 384.714C37.3565 384.385 36.8897 384.053 36.4244 383.719L36.1747 384.067C35.7088 383.733 35.2443 383.397 34.7812 383.059L35.0339 382.713C34.5718 382.375 34.1112 382.036 33.6519 381.694L33.3963 382.038C32.9361 381.696 32.4773 381.351 32.02 381.005L32.2786 380.663C31.8223 380.318 31.3674 379.97 30.914 379.621L30.6524 379.96C30.198 379.609 29.745 379.257 29.2935 378.903L29.5581 378.566C29.1077 378.212 28.6589 377.857 28.2115 377.499L27.9441 377.834C27.4963 377.476 27.0499 377.116 26.605 376.755L26.8753 376.422C26.4314 376.061 25.989 375.698 25.548 375.334L25.2749 375.664C24.833 375.298 24.3926 374.93 23.9538 374.561L24.2297 374.233C23.7918 373.864 23.3554 373.494 22.9205 373.121L22.6417 373.446C22.2059 373.073 21.7716 372.697 21.3388 372.32L21.6203 371.997C21.189 371.621 20.7593 371.243 20.331 370.864L20.0468 371.184C19.6179 370.804 19.1907 370.422 18.7649 370.037L19.0519 369.719C18.6271 369.336 18.2038 368.951 17.7821 368.564L17.4924 368.88C17.0698 368.492 16.6487 368.102 16.2293 367.71L16.5216 367.397C16.103 367.007 15.686 366.614 15.2705 366.219L14.9756 366.53C14.5592 366.135 14.1445 365.738 13.7314 365.339L14.029 365.031C13.6177 364.633 13.208 364.234 12.7999 363.834L12.4997 364.139C12.0908 363.738 11.6835 363.334 11.2778 362.929L11.5806 362.626C11.1757 362.221 10.7725 361.815 10.3708 361.407L10.0655 361.708C9.66306 361.299 9.26221 360.888 8.863 360.476L9.17082 360.178C8.77244 359.766 8.37569 359.353 7.98059 358.938L7.67028 359.233C7.2747 358.818 6.88076 358.4 6.48848 357.981L6.80125 357.689C6.41058 357.271 6.02155 356.852 5.63417 356.431L5.31895 356.721C4.93077 356.3 4.54424 355.876 4.15939 355.451L4.47701 355.164C4.09295 354.739 3.71056 354.313 3.32985 353.886L3.00984 354.17C2.62833 353.742 2.24851 353.311 1.87038 352.879L2.19275 352.597C1.8154 352.166 1.43974 351.733 1.06578 351.299L0.741074 351.578C0.367096 351.144 -0.00518036 350.708 -0.375751 350.27L-0.0487366 349.993C-0.418072 349.557 -0.785706 349.119 -1.15163 348.679L-1.48093 348.953C-1.84761 348.512 -2.21258 348.07 -2.57582 347.626L-2.24426 347.355C-2.60675 346.912 -2.96752 346.467 -3.32655 346.021L-3.66034 346.29C-4.02012 345.842 -4.37816 345.394 -4.73445 344.943L-4.39845 344.677C-4.75401 344.228 -5.10783 343.777 -5.45989 343.324L-5.79807 343.587C-6.14968 343.135 -6.49955 342.681 -6.84765 342.226L-6.50732 341.966C-6.85459 341.512 -7.2001 341.056 -7.54386 340.599L-7.88631 340.856C-8.23077 340.398 -8.57346 339.938 -8.91437 339.477L-8.5698 339.222C-8.91002 338.762 -9.24845 338.3 -9.5851 337.836L-9.93175 338.088C-10.2691 337.623 -10.6046 337.157 -10.9384 336.69L-10.5897 336.441C-10.9225 335.974 -11.2536 335.507 -11.5828 335.037L-11.9335 335.283C-12.2623 334.815 -12.5893 334.344 -12.9145 333.873L-12.5618 333.63C-12.8863 333.159 -13.209 332.687 -13.5299 332.213L-13.8846 332.453C-14.2062 331.978 -14.526 331.502 -14.8439 331.025L-14.4872 330.787C-14.8045 330.31 -15.1199 329.832 -15.4335 329.353L-15.7921 329.587C-16.1064 329.107 -16.4188 328.625 -16.7293 328.141L-16.3688 327.909C-16.6782 327.428 -16.9857 326.945 -17.2914 326.46L-17.6537 326.689C-17.9592 326.205 -18.2628 325.719 -18.5646 325.232L-18.2004 325.006C-18.5016 324.52 -18.8009 324.033 -19.0984 323.544L-19.4644 323.766C-19.7624 323.276 -20.0586 322.785 -20.3529 322.293L-19.9851 322.073C-20.2788 321.581 -20.5707 321.088 -20.8606 320.594L-21.2302 320.81C-21.5207 320.315 -21.8094 319.818 -22.0961 319.32L-21.7248 319.106C-22.0101 318.61 -22.2935 318.113 -22.5751 317.615L-22.9481 317.826C-23.2297 317.327 -23.5094 316.827 -23.7872 316.326L-23.4125 316.118C-23.6897 315.618 -23.965 315.117 -24.2384 314.614L-24.6148 314.818C-24.8888 314.315 -25.1609 313.809 -25.431 313.303L-25.053 313.101C-25.3226 312.596 -25.5903 312.089 -25.856 311.581L-26.2356 311.78C-26.5019 311.27 -26.7663 310.76 -27.0287 310.248L-26.6475 310.053C-26.9082 309.544 -27.167 309.035 -27.4239 308.524L-27.8067 308.716C-28.0638 308.205 -28.3191 307.692 -28.5723 307.178L-28.188 306.988C-28.4408 306.475 -28.6917 305.961 -28.9405 305.446L-29.3264 305.632C-29.5757 305.115 -29.8232 304.597 -30.0686 304.078L-29.6813 303.895C-29.9263 303.377 -30.1693 302.858 -30.4103 302.338L-30.7991 302.518C-31.0406 301.996 -31.2802 301.473 -31.5177 300.949L-31.1275 300.773C-31.3633 300.253 -31.5971 299.732 -31.8289 299.209L-32.2205 299.383C-32.4527 298.86 -32.683 298.335 -32.9113 297.81L-32.5184 297.639C-32.7462 297.114 -32.9721 296.588 -33.196 296.061L-33.5903 296.229C-33.8146 295.701 -34.0369 295.172 -34.2573 294.641L-33.8616 294.477C-34.0815 293.948 -34.2994 293.417 -34.5153 292.886L-34.9122 293.047C-35.1283 292.515 -35.3425 291.981 -35.5546 291.447L-35.1564 291.289C-35.3669 290.758 -35.5755 290.227 -35.782 289.694L-36.1814 289.849C-36.3884 289.315 -36.5933 288.78 -36.7962 288.244L-36.3956 288.092C-36.5981 287.557 -36.7986 287.021 -36.9971 286.484L-37.3989 286.633C-37.5978 286.095 -37.7946 285.555 -37.9894 285.015L-37.5864 284.87C-37.7808 284.33 -37.9731 283.79 -38.1635 283.249L-38.5676 283.391C-38.7581 282.849 -38.9465 282.306 -39.1328 281.762L-38.7275 281.624C-38.9125 281.084 -39.0954 280.543 -39.2763 280.001L-39.6827 280.136C-39.864 279.593 -40.0432 279.049 -40.2204 278.504L-39.8129 278.372C-39.9898 277.828 -40.1645 277.283 -40.3373 276.737L-40.7457 276.866C-40.9188 276.319 -41.0898 275.771 -41.2587 275.222L-40.8492 275.096C-41.0178 274.548 -41.1843 273.999 -41.3488 273.449L-41.7592 273.571C-41.9237 273.021 -42.0861 272.47 -42.2463 271.918L-41.8349 271.799C-41.994 271.251 -42.1511 270.702 -42.3061 270.152L-42.7184 270.268C-42.8737 269.717 -43.027 269.166 -43.1781 268.613L-42.7649 268.5C-42.9157 267.948 -43.0645 267.395 -43.2112 266.842L-43.6253 266.951C-43.7723 266.397 -43.9172 265.841 -44.0599 265.285L-43.645 265.178C-43.7875 264.623 -43.9279 264.066 -44.0662 263.509L-44.482 263.612C-44.6203 263.055 -44.7564 262.497 -44.8905 261.938L-44.4739 261.838C-44.6069 261.283 -44.7379 260.728 -44.8667 260.171L-45.2841 260.268C-45.4132 259.71 -45.5402 259.152 -45.6651 258.593L-45.247 258.499C-45.3717 257.941 -45.4943 257.382 -45.6147 256.822L-46.0335 256.912C-46.1542 256.351 -46.2728 255.789 -46.3893 255.227L-45.9697 255.14C-46.086 254.578 -46.2001 254.016 -46.312 253.452L-46.7322 253.536C-46.8442 252.973 -46.9541 252.408 -47.0618 251.843L-46.6409 251.763C-46.7477 251.203 -46.8524 250.642 -46.955 250.08L-47.3764 250.157C-47.4792 249.595 -47.5799 249.031 -47.6784 248.466L-47.2564 248.393C-47.3548 247.829 -47.451 247.265 -47.5451 246.7L-47.9677 246.771C-48.062 246.205 -48.1541 245.638 -48.2441 245.07L-47.821 245.003C-47.9108 244.437 -47.9985 243.87 -48.0841 243.302L-48.5077 243.365C-48.5933 242.797 -48.6768 242.228 -48.7581 241.658L-48.3339 241.598C-48.4144 241.033 -48.4928 240.468 -48.5691 239.903L-48.9936 239.96C-49.07 239.393 -49.1443 238.826 -49.2164 238.257L-48.7914 238.203C-48.8634 237.636 -48.9333 237.068 -49.001 236.5L-49.4264 236.55C-49.4942 235.981 -49.5599 235.41 -49.6235 234.839L-49.1977 234.792C-49.2611 234.222 -49.3223 233.651 -49.3814 233.08L-49.8076 233.124C-49.8668 232.551 -49.9239 231.978 -49.9787 231.404L-49.5523 231.364C-49.6065 230.797 -49.6586 230.229 -49.7085 229.66L-50.1353 229.698C-50.1854 229.128 -50.2333 228.558 -50.279 227.988L-49.852 227.953C-49.8977 227.384 -49.9412 226.813 -49.9826 226.242L-50.4099 226.273C-50.4513 225.701 -50.4906 225.129 -50.5278 224.555L-50.1002 224.528C-50.1373 223.956 -50.1722 223.383 -50.2049 222.809L-50.6327 222.834C-50.6654 222.259 -50.6961 221.684 -50.7245 221.108L-50.2966 221.087C-50.3248 220.517 -50.3508 219.947 -50.3746 219.376L-50.8026 219.393C-50.8265 218.823 -50.8482 218.251 -50.8677 217.68L-50.4396 217.665C-50.4591 217.094 -50.4764 216.523 -50.4916 215.951L-50.9199 215.962C-50.9351 215.389 -50.9482 214.815 -50.9591 214.241L-50.5307 214.233C-50.5416 213.66 -50.5503 213.086 -50.5569 212.512L-50.9852 212.517C-50.9918 211.941 -50.9962 211.366 -50.9984 210.789L-50.5699 210.788C-50.571 210.5 -50.5716 210.212 -50.5716 209.924C-50.5716 209.636 -50.571 209.348 -50.5699 209.061L-50.9984 209.059C-50.9962 208.483 -50.9918 207.907 -50.9852 207.331L-50.5569 207.336C-50.5503 206.762 -50.5416 206.188 -50.5307 205.615L-50.9591 205.607C-50.9482 205.033 -50.9351 204.459 -50.9199 203.886L-50.4916 203.898C-50.4764 203.326 -50.4591 202.754 -50.4396 202.183L-50.8677 202.169C-50.8482 201.597 -50.8265 201.025 -50.8026 200.455L-50.3746 200.473C-50.3508 199.901 -50.3248 199.331 -50.2966 198.761L-50.7245 198.74C-50.6961 198.164 -50.6654 197.589 -50.6327 197.014L-50.2049 197.039C-50.1722 196.465 -50.1373 195.893 -50.1002 195.32L-50.5278 195.293C-50.4906 194.719 -50.4513 194.147 -50.4099 193.575L-49.9826 193.606C-49.9412 193.035 -49.8977 192.464 -49.852 191.895L-50.279 191.86C-50.2333 191.29 -50.1854 190.72 -50.1353 190.15L-49.7085 190.188C-49.6586 189.619 -49.6065 189.052 -49.5523 188.485L-49.9787 188.444C-49.9238 187.87 -49.8668 187.297 -49.8076 186.724L-49.3814 186.768C-49.3223 186.197 -49.2611 185.626 -49.1977 185.056L-49.6235 185.009C-49.5599 184.438 -49.4942 183.867 -49.4264 183.298L-49.001 183.348C-48.9333 182.78 -48.8634 182.212 -48.7914 181.645L-49.2164 181.591C-49.1443 181.022 -49.07 180.455 -48.9936 179.888L-48.569 179.945C-48.4928 179.38 -48.4144 178.815 -48.3339 178.25L-48.758 178.19C-48.6767 177.62 -48.5933 177.051 -48.5077 176.483L-48.084 176.546C-47.9985 175.978 -47.9108 175.411 -47.821 174.845L-48.2441 174.778C-48.1541 174.21 -48.0619 173.643 -47.9677 173.077L-47.5451 173.148C-47.451 172.583 -47.3547 172.018 -47.2564 171.455L-47.6784 171.381C-47.5799 170.817 -47.4792 170.253 -47.3764 169.691L-46.955 169.768C-46.8524 169.206 -46.7477 168.645 -46.6409 168.085L-47.0617 168.004C-46.954 167.44 -46.8442 166.875 -46.7322 166.312L-46.312 166.396C-46.2 165.832 -46.0859 165.27 -45.9697 164.708L-46.3892 164.621C-46.2728 164.059 -46.1542 163.497 -46.0335 162.936L-45.6147 163.026C-45.4942 162.466 -45.3716 161.907 -45.247 161.349L-45.6651 161.255C-45.5402 160.696 -45.4132 160.138 -45.2841 159.58L-44.8667 159.677C-44.7378 159.12 -44.6069 158.565 -44.4738 158.01L-44.8904 157.91C-44.7564 157.351 -44.6202 156.793 -44.4819 156.236L-44.0661 156.339C-43.9278 155.782 -43.7874 155.225 -43.6449 154.67L-44.0599 154.563C-43.9171 154.007 -43.7722 153.451 -43.6252 152.896L-43.2111 153.006C-43.0644 152.453 -42.9156 151.9 -42.7648 151.348L-43.178 151.235C-43.0269 150.682 -42.8737 150.13 -42.7184 149.579L-42.306 149.696C-42.151 149.146 -41.994 148.597 -41.8348 148.049L-42.2463 147.929C-42.086 147.378 -41.9236 146.826 -41.7591 146.276L-41.3487 146.399C-41.1842 145.849 -41.0177 145.3 -40.8491 144.752L-41.2586 144.626C-41.0897 144.077 -40.9187 143.529 -40.7456 142.982L-40.3372 143.111C-40.1644 142.565 -39.9897 142.02 -39.8128 141.476L-40.2203 141.344C-40.0431 140.799 -39.8639 140.255 -39.6826 139.711L-39.2762 139.847C-39.0953 139.305 -38.9124 138.764 -38.7274 138.224L-39.1327 138.086C-38.9464 137.542 -38.758 136.999 -38.5675 136.457L-38.1634 136.599C-37.973 136.058 -37.7807 135.517 -37.5863 134.978L-37.9893 134.833C-37.7945 134.293 -37.5977 133.753 -37.3988 133.215L-36.997 133.364C-36.7985 132.826 -36.598 132.29 -36.3955 131.755L-36.7962 131.604C-36.5932 131.068 -36.3883 130.533 -36.1814 129.999L-35.7819 130.154C-35.5754 129.621 -35.3668 129.09 -35.1563 128.559L-35.5545 128.401C-35.3424 127.866 -35.1283 127.333 -34.9121 126.801L-34.5152 126.962C-34.2993 126.43 -34.0814 125.9 -33.8615 125.371L-34.2572 125.206C-34.0368 124.676 -33.8145 124.147 -33.5902 123.619L-33.1959 123.786C-32.972 123.259 -32.7461 122.734 -32.5183 122.209L-32.9112 122.038C-32.6829 121.513 -32.4526 120.988 -32.2204 120.465L-31.8288 120.639C-31.597 120.116 -31.3632 119.595 -31.1275 119.075L-31.5176 118.898C-31.2801 118.375 -31.0405 117.852 -30.799 117.33L-30.4103 117.51C-30.1692 116.99 -29.9262 116.471 -29.6813 115.953L-30.0685 115.77C-29.8231 115.251 -29.5757 114.733 -29.3263 114.216L-28.9405 114.402C-28.6916 113.887 -28.4408 113.373 -28.188 112.86L-28.5723 112.67C-28.319 112.156 -28.0638 111.643 -27.8066 111.132L-27.4238 111.324C-27.167 110.813 -26.9081 110.304 -26.6474 109.795L-27.0286 109.6C-26.7662 109.088 -26.5019 108.578 -26.2356 108.068L-25.856 108.267C-25.5902 107.759 -25.3225 107.252 -25.0529 106.747L-25.4309 106.545C-25.1608 106.039 -24.8887 105.533 -24.6148 105.03L-24.2384 105.234C-23.965 104.731 -23.6896 104.23 -23.4124 103.73L-23.7871 103.522C-23.5093 103.021 -23.2296 102.521 -22.948 102.022L-22.575 102.233C-22.2935 101.735 -22.0101 101.238 -21.7248 100.742L-22.0961 100.528C-21.8093 100.03 -21.5207 99.5333 -21.2302 99.0378L-20.8606 99.2545C-20.5706 98.7601 -20.2788 98.267 -19.9851 97.7753L-20.3529 97.5556C-20.0586 97.0629 -19.7624 96.5716 -19.4643 96.0817L-19.0983 96.3044C-18.8009 95.8155 -18.5016 95.328 -18.2004 94.8419L-18.5646 94.6162C-18.2628 94.1292 -17.9592 93.6435 -17.6537 93.1593L-17.2913 93.3879C-16.9857 92.9033 -16.6782 92.4203 -16.3688 91.9386L-16.7293 91.7071C-16.4187 91.2236 -16.1063 90.7415 -15.7921 90.261L-15.4335 90.4954C-15.1199 90.0158 -14.8045 89.5376 -14.4872 89.061L-14.8439 88.8236C-14.5259 88.3459 -14.2062 87.8697 -13.8846 87.395L-13.5299 87.6353C-13.209 87.1616 -12.8863 86.6893 -12.5618 86.2186L-12.9145 85.9754C-12.5893 85.5037 -12.2623 85.0335 -11.9335 84.5648L-11.5828 84.8108C-11.2535 84.3415 -10.9225 83.8737 -10.5897 83.4074L-10.9384 83.1585C-10.6046 82.6909 -10.2691 82.2249 -9.93173 81.7604L-9.58509 82.0121C-9.24844 81.5486 -8.91 81.0866 -8.56979 80.6262L-8.91435 80.3716C-8.57344 79.9102 -8.23075 79.4503 -7.8863 78.9921L-7.54383 79.2495C-7.20008 78.7922 -6.85457 78.3364 -6.5073 77.8822L-6.84763 77.622C-6.49953 77.1667 -6.14966 76.713 -5.79805 76.2609L-5.45987 76.5239C-5.10781 76.0712 -4.75399 75.6201 -4.39843 75.1707L-4.73443 74.9049C-4.37814 74.4545 -4.0201 74.0057 -3.66032 73.5585L-3.32653 73.8271C-2.9675 73.3809 -2.60673 72.9362 -2.24424 72.4933L-2.5758 72.2219C-2.21255 71.7781 -1.84759 71.3358 -1.48091 70.8952L-1.15161 71.1692C-0.785686 70.7295 -0.418053 70.2915 -0.0487175 69.8551L-0.375736 69.5783C-0.0051651 69.1405 0.367119 68.7043 0.741096 68.2698L1.0658 68.5492C1.43977 68.1147 1.81543 67.6819 2.19277 67.2508L1.8704 66.9687C2.24853 66.5367 2.62836 66.1063 3.00986 65.6777L3.32987 65.9626C3.71058 65.5349 4.09298 65.1088 4.47703 64.6845L4.15941 64.397C4.54427 63.9719 4.93079 63.5484 5.31898 63.1267L5.63419 63.4168C6.02156 62.996 6.41059 62.5769 6.80127 62.1595L6.48849 61.8667C6.88078 61.4476 7.27472 61.0303 7.6703 60.6147L7.98061 60.9101C8.37572 60.495 8.77247 60.0817 9.17085 59.6702L8.86303 59.3722C9.26224 58.9598 9.66308 58.5492 10.0656 58.1403L10.3709 58.4409C10.7725 58.0329 11.1757 57.6267 11.5806 57.2223L11.2778 56.9192C11.6835 56.514 12.0908 56.1105 12.4998 55.7089L12.8 56.0146C13.208 55.6138 13.6177 55.2148 14.029 54.8176L13.7314 54.5094C14.1445 54.1105 14.5592 53.7133 14.9756 53.318L15.2706 53.6287C15.686 53.2342 16.103 52.8416 16.5216 52.4509L16.2293 52.1377C16.6488 51.7461 17.0698 51.3564 17.4924 50.9686L17.7821 51.2842C18.2038 50.8972 18.6271 50.512 19.0519 50.1287L18.7649 49.8106C19.1907 49.4265 19.618 49.0443 20.0468 48.664L20.3311 48.9845C20.7593 48.6047 21.189 48.2269 21.6203 47.8509L21.3388 47.5279C21.7716 47.1507 22.2059 46.7753 22.6417 46.4019L22.9205 46.7272C23.3554 46.3546 23.7918 45.9839 24.2298 45.6151L23.9538 45.2874C24.3927 44.9178 24.833 44.5502 25.2749 44.1845L25.5481 44.5146C25.989 44.1497 26.4314 43.7868 26.8754 43.4258L26.6051 43.0934C27.0499 42.7316 27.4963 42.3719 27.9441 42.0141L28.2116 42.3488C28.6589 41.9913 29.1078 41.6359 29.5581 41.2824L29.2936 40.9454C29.745 40.591 30.198 40.2386 30.6524 39.8883L30.914 40.2275C31.3674 39.8779 31.8223 39.5303 32.2787 39.1847L32.02 38.8432C32.4773 38.4968 32.9361 38.1525 33.3963 37.8102L33.652 38.1539C34.1112 37.8123 34.5718 37.4728 35.0339 37.1353L34.7812 36.7894C35.2443 36.4511 35.7088 36.1149 36.1748 35.7808L36.4244 36.1289C36.8898 35.7952 37.3566 35.4635 37.8247 35.1339L37.5781 34.7836C38.0473 34.4533 38.5179 34.125 38.9899 33.7989L39.2334 34.1513C39.7044 33.8259 40.1767 33.5025 40.6504 33.1812L40.41 32.8266C40.8847 32.5047 41.3609 32.1848 41.8384 31.867L42.0757 32.2237C42.5522 31.9066 43.03 31.5916 43.5092 31.2788L43.275 30.92C43.7553 30.6064 44.237 30.295 44.72 29.9856L44.951 30.3464C45.4331 30.0377 45.9165 29.7311 46.4013 29.4267L46.1734 29.0639C46.6592 28.7587 47.1464 28.4558 47.6348 28.155L47.8595 28.5198C48.3469 28.2196 48.8356 27.9216 49.3256 27.6258L49.1042 27.259C49.5953 26.9626 50.0877 26.6683 50.5815 26.3761L50.7996 26.7449C51.2923 26.4534 51.7862 26.1641 52.2814 25.877L52.0665 25.5064C52.5627 25.2187 53.0602 24.9332 53.559 24.65L53.7705 25.0225C54.2682 24.7399 54.7671 24.4595 55.2672 24.1813L55.059 23.8069C55.5603 23.5281 56.0628 23.2515 56.5666 22.9771L56.7715 23.3534C57.2742 23.0796 57.7781 22.8081 58.2833 22.5388L58.0817 22.1608C58.588 21.8909 59.0956 21.6232 59.6043 21.3579L59.8025 21.7377C60.31 21.473 60.8188 21.2105 61.3288 20.9503L61.134 20.5687C61.6447 20.3081 62.1566 20.0498 62.6697 19.7938L62.861 20.1771C63.3729 19.9216 63.8861 19.6684 64.4005 19.4175L64.2126 19.0325C64.7281 18.781 65.2448 18.5319 65.7627 18.285L65.947 18.6717C66.4638 18.4254 66.9817 18.1814 67.5007 17.9397L67.3199 17.5513C67.8401 17.309 68.3615 17.0691 68.8841 16.8315L69.0614 17.2215C69.5823 16.9846 70.1043 16.7501 70.6274 16.5179L70.4536 16.1263C70.9775 15.8938 71.5025 15.6636 72.0287 15.4358L72.1989 15.8289C72.7239 15.6016 73.25 15.3766 73.7772 15.1539L73.6105 14.7593C74.1389 14.5361 74.6684 14.3153 75.1991 14.0969L75.3621 14.4931C75.8916 14.2752 76.4221 14.0596 76.9537 13.8464L76.7943 13.4488C77.3271 13.2351 77.861 13.0238 78.3961 12.8149L78.5519 13.2139C79.0844 13.006 79.6179 12.8005 80.1526 12.5973L80.0004 12.1968C80.536 11.9933 81.0728 11.7921 81.6106 11.5934L81.7591 11.9952C82.2956 11.7969 82.8333 11.601 83.3719 11.4075L83.2271 11.0043C83.767 10.8103 84.3079 10.6188 84.8499 10.4297L84.991 10.8342C85.5318 10.6455 86.0735 10.4593 86.6163 10.2754L86.4789 9.86966C87.0225 9.68556 87.5671 9.5039 88.1127 9.32469L88.2464 9.73171C88.7891 9.55345 89.3328 9.37761 89.8775 9.20421L89.7476 8.79598C90.2935 8.62218 90.8405 8.45083 91.3884 8.28193L91.5146 8.69133C92.0613 8.52282 92.609 8.35676 93.1576 8.19316L93.0352 7.7826C93.5851 7.61862 94.1359 7.45711 94.6878 7.29808L94.8064 7.70974C95.3569 7.55108 95.9084 7.39488 96.4609 7.24117L96.3461 6.82843C96.8984 6.67477 97.4516 6.52358 98.0058 6.37488L98.1168 6.78866C98.6684 6.64066 99.2209 6.49513 99.7743 6.35208L99.6671 5.9373C100.222 5.79392 100.777 5.65303 101.334 5.51465L101.437 5.9304C101.993 5.79234 102.549 5.65676 103.106 5.5237L103.006 5.10701C103.564 4.97364 104.124 4.84278 104.684 4.71444L104.779 5.13204C105.338 5.004 105.898 4.87848 106.459 4.75549L106.367 4.33703C106.926 4.21437 107.486 4.09422 108.047 3.97659L108.134 4.39589C108.693 4.27867 109.253 4.16397 109.813 4.05179L109.729 3.63171C110.291 3.51927 110.854 3.40936 111.417 3.30199L111.497 3.72283C112.06 3.61571 112.623 3.51112 113.186 3.40908L113.11 2.98751C113.675 2.88523 114.241 2.78551 114.808 2.68835L114.88 3.1106C115.445 3.0137 116.012 2.91935 116.578 2.82757L116.51 2.40467C117.074 2.31332 117.639 2.22452 118.204 2.13826L118.269 2.56178C118.833 2.47573 119.399 2.39221 119.964 2.31125L119.904 1.88715C120.471 1.806 121.039 1.72741 121.608 1.65139L121.664 2.07603C122.232 2.00018 122.8 1.9269 123.369 1.8562L123.316 1.43105C123.886 1.36018 124.457 1.2919 125.029 1.2262L125.078 1.65182C125.647 1.58642 126.217 1.5236 126.787 1.46337L126.742 1.03732C127.31 0.977348 127.879 0.919933 128.449 0.865087L128.49 1.29153C129.058 1.23681 129.627 1.18465 130.196 1.13507L130.159 0.708269C130.73 0.658573 131.302 0.611457 131.874 0.566933L131.907 0.994059C132.478 0.949637 133.05 0.9078 133.622 0.86856L133.592 0.441147C134.166 0.401817 134.74 0.365089 135.315 0.330975L135.341 0.75864C135.912 0.724746 136.484 0.693438 137.056 0.664727L137.035 0.236848C137.605 0.208247 138.176 0.182216 138.747 0.158767L138.765 0.586823C139.335 0.563428 139.906 0.542607 140.477 0.524373L140.464 0.0961747C141.037 0.0778992 141.61 0.0622159 142.184 0.0491354L142.194 0.477441C142.766 0.46439 143.34 0.453936 143.914 0.446089L143.908 0.0177127C144.483 0.00984838 145.059 0.00459752 145.635 0.00197075L145.637 0.430383C145.925 0.429072 146.212 0.428416 146.5 0.428416C146.788 0.428416 147.075 0.429072 147.363 0.430382L147.365 0.00197041C147.941 0.00459698 148.517 0.00984771 149.092 0.0177119L149.086 0.446088C149.66 0.453935 150.234 0.464389 150.806 0.477439L150.816 0.049134C151.39 0.0622146 151.963 0.077898 152.536 0.0961737L152.522 0.524372C153.094 0.542606 153.665 0.563426 154.235 0.586822L154.253 0.158766C154.824 0.182215 155.395 0.208246 155.965 0.236847L155.944 0.664726C156.516 0.693437 157.088 0.724745 157.659 0.758639L157.685 0.330975C158.26 0.365089 158.834 0.401817 159.408 0.441147L159.378 0.86856C159.95 0.9078 160.522 0.949637 161.093 0.994059L161.126 0.566933C161.698 0.611457 162.27 0.658573 162.841 0.708269L162.804 1.13507C163.373 1.18465 163.942 1.23681 164.51 1.29153L164.551 0.865089C165.121 0.919935 165.69 0.977351 166.258 1.03733L166.213 1.46337C166.783 1.52361 167.353 1.58643 167.922 1.65182L167.971 1.22621C168.543 1.2919 169.114 1.36019 169.684 1.43106L169.631 1.8562C170.2 1.92691 170.768 2.00019 171.336 2.07603L171.392 1.65139C171.961 1.72742 172.529 1.80601 173.096 1.88716L173.036 2.31126C173.602 2.39222 174.167 2.47574 174.731 2.5618L174.796 2.13828C175.361 2.22453 175.926 2.31334 176.49 2.40468L176.422 2.82759C176.989 2.91937 177.555 3.01372 178.12 3.11062L178.192 2.68836C178.759 2.78553 179.325 2.88525 179.89 2.98753L179.814 3.4091C180.378 3.51114 180.941 3.61573 181.503 3.72285L181.583 3.30201C182.146 3.40938 182.709 3.51929 183.271 3.63173L183.187 4.05181C183.747 4.164 184.307 4.2787 184.866 4.39592L184.954 3.97662C185.514 4.09425 186.074 4.2144 186.633 4.33706L186.542 4.75553C187.102 4.87852 187.662 5.00404 188.221 5.13207L188.316 4.71448C188.876 4.84281 189.436 4.97367 189.994 5.10704L189.894 5.52374C190.451 5.6568 191.008 5.79238 191.563 5.93045L191.666 5.51469C192.223 5.65308 192.778 5.79397 193.333 5.93735L193.226 6.35213C193.779 6.49518 194.332 6.64071 194.883 6.78872L194.994 6.37494C195.549 6.52364 196.102 6.67483 196.654 6.82849L196.539 7.24123C197.092 7.39494 197.643 7.55114 198.194 7.70981L198.312 7.29815C198.864 7.45718 199.415 7.6187 199.965 7.78268L199.843 8.19323C200.391 8.35683 200.939 8.52289 201.486 8.69141L201.612 8.282C202.16 8.4509 202.707 8.62226 203.253 8.79606L203.123 9.20429C203.667 9.3777 204.211 9.55354 204.754 9.7318L204.888 9.32478C205.433 9.504 205.978 9.68566 206.521 9.86975L206.384 10.2755C206.927 10.4594 207.469 10.6456 208.009 10.8343L208.15 10.4298C208.692 10.6189 209.233 10.8104 209.773 11.0044L209.628 11.4076C210.167 11.6011 210.705 11.797 211.241 11.9953L211.39 11.5935C211.927 11.7922 212.464 11.9934 213 12.1969L212.848 12.5974C213.382 12.8006 213.916 13.0061 214.448 13.214L214.604 12.815C215.139 13.0239 215.673 13.2352 216.206 13.4489L216.047 13.8465C216.578 14.0597 217.109 14.2753 217.638 14.4932L217.801 14.097C218.332 14.3154 218.861 14.5362 219.39 14.7594L219.223 15.154C219.75 15.3767 220.276 15.6017 220.801 15.829L220.972 15.4359C221.498 15.6637 222.023 15.8939 222.547 16.1264L222.373 16.518C222.896 16.7502 223.418 16.9847 223.939 17.2216L224.116 16.8316C224.639 17.0692 225.16 17.3091 225.68 17.5514L225.499 17.9397C226.019 18.1815 226.536 18.4255 227.053 18.6718L227.237 18.2851C227.755 18.5319 228.272 18.7811 228.788 19.0326L228.6 19.4176C229.114 19.6685 229.627 19.9217 230.139 20.1772L230.33 19.7938C230.844 20.0499 231.355 20.3082 231.866 20.5688L231.671 20.9504C232.181 21.2106 232.69 21.4731 233.198 21.7378L233.396 21.358C233.905 21.6233 234.412 21.891 234.918 22.1608L234.717 22.5389C235.222 22.8082 235.726 23.0797 236.229 23.3535L236.434 22.9772C236.937 23.2516 237.44 23.5282 237.941 23.807L237.733 24.1814C238.233 24.4596 238.732 24.74 239.23 25.0226L239.441 24.6501C239.94 24.9333 240.437 25.2188 240.934 25.5064L240.719 25.8771C241.214 26.1642 241.708 26.4535 242.201 26.7449L242.419 26.3762C242.912 26.6683 243.405 26.9626 243.896 27.2591L243.674 27.6259C244.164 27.9217 244.653 28.2197 245.141 28.5198L245.365 28.155C245.854 28.4558 246.341 28.7588 246.827 29.0639L246.599 29.4267C247.084 29.7312 247.567 30.0377 248.049 30.3465L248.28 29.9857C248.763 30.295 249.245 30.6065 249.725 30.9201L249.491 31.2788C249.97 31.5917 250.448 31.9066 250.924 32.2237L251.162 31.8671C251.639 32.1848 252.115 32.5047 252.59 32.8267L252.35 33.1813C252.823 33.5025 253.296 33.8259 253.767 34.1514L254.01 33.7989C254.482 34.1251 254.953 34.4533 255.422 34.7836L255.175 35.1339C255.643 35.4635 256.11 35.7952 256.576 36.1289L256.825 35.7808C257.291 36.1149 257.756 36.4511 258.219 36.7894L257.966 37.1354C258.428 37.4729 258.889 37.8124 259.348 38.1539L259.604 37.8102C260.064 38.1525 260.523 38.4968 260.98 38.8432L260.721 39.1847C261.178 39.5303 261.633 39.8779 262.086 40.2276L262.348 39.8883C262.802 40.2387 263.255 40.591 263.706 40.9454L263.442 41.2824C263.892 41.6359 264.341 41.9913 264.788 42.3488L265.056 42.0141C265.504 42.3719 265.95 42.7317 266.395 43.0934L266.125 43.4258C266.569 43.7868 267.011 44.1497 267.452 44.5146L267.725 44.1846C268.167 44.5502 268.607 44.9178 269.046 45.2874L268.77 45.6151C269.208 45.9839 269.645 46.3546 270.08 46.7272L270.358 46.4019C270.794 46.7753 271.228 47.1507 271.661 47.528L271.38 47.8509C271.811 48.2269 272.241 48.6048 272.669 48.9846L272.953 48.664C273.382 49.0443 273.809 49.4266 274.235 49.8107L273.948 50.1287C274.373 50.512 274.796 50.8972 275.218 51.2842L275.508 50.9686C275.93 51.3564 276.351 51.7461 276.771 52.1377L276.478 52.4509C276.897 52.8417 277.314 53.2343 277.729 53.6287L278.024 53.318C278.441 53.7133 278.855 54.1105 279.269 54.5095L278.971 54.8176C279.382 55.2148 279.792 55.6138 280.2 56.0146L280.5 55.7089C280.909 56.1106 281.316 56.514 281.722 56.9192L281.419 57.2223C281.824 57.6267 282.228 58.0329 282.629 58.4409L282.934 58.1404C283.337 58.5492 283.738 58.9598 284.137 59.3722L283.829 59.6702C284.228 60.0817 284.624 60.495 285.019 60.9101L285.33 60.6147C285.725 61.0303 286.119 61.4477 286.512 61.8667L286.199 62.1595C286.589 62.5769 286.978 62.996 287.366 63.4169L287.681 63.1267C288.069 63.5484 288.456 63.9719 288.841 64.3971L288.523 64.6846C288.907 65.1089 289.289 65.5349 289.67 65.9626L289.99 65.6778C290.372 66.1064 290.751 66.5367 291.13 66.9687L290.807 67.2509C291.185 67.682 291.56 68.1148 291.934 68.5493L292.259 68.2698C292.633 68.7043 293.005 69.1405 293.376 69.5783L293.049 69.8551C293.418 70.2915 293.786 70.7296 294.152 71.1693L294.481 70.8952C294.848 71.3358 295.213 71.7781 295.576 72.222L295.244 72.4933C295.607 72.9363 295.968 73.3809 296.327 73.8271L296.66 73.5585C297.02 74.0057 297.378 74.4545 297.734 74.9049L297.398 75.1707C297.754 75.6202 298.108 76.0712 298.46 76.5239L298.798 76.2609C299.15 76.713 299.5 77.1667 299.848 77.622L299.507 77.8822C299.855 78.3364 300.2 78.7922 300.544 79.2495L300.886 78.9921C301.231 79.4504 301.573 79.9102 301.914 80.3716L301.57 80.6262C301.91 81.0866 302.248 81.5486 302.585 82.0122L302.932 81.7604C303.269 82.2249 303.605 82.6909 303.938 83.1585L303.59 83.4074C303.923 83.8737 304.254 84.3415 304.583 84.8108L304.934 84.5648C305.262 85.0335 305.589 85.5037 305.915 85.9754L305.562 86.2186C305.886 86.6894 306.209 87.1616 306.53 87.6353L306.885 87.3951C307.206 87.8698 307.526 88.3459 307.844 88.8236L307.487 89.061C307.805 89.5377 308.12 90.0158 308.434 90.4954L308.792 90.261C309.106 90.7416 309.419 91.2236 309.729 91.7071L309.369 91.9387C309.678 92.4203 309.986 92.9034 310.291 93.3879L310.654 93.1593C310.959 93.6435 311.263 94.1292 311.565 94.6163L311.2 94.8419C311.502 95.328 311.801 95.8155 312.098 96.3044L312.464 96.0817C312.762 96.5716 313.059 97.0629 313.353 97.5556L312.985 97.7753C313.279 98.267 313.571 98.7601 313.861 99.2546L314.23 99.0379C314.521 99.5333 314.809 100.03 315.096 100.528L314.725 100.742C315.01 101.238 315.294 101.735 315.575 102.233L315.948 102.023C316.23 102.521 316.509 103.021 316.787 103.522L316.412 103.73C316.69 104.23 316.965 104.732 317.238 105.234L317.615 105.03C317.889 105.534 318.161 106.039 318.431 106.545L318.053 106.747C318.323 107.252 318.59 107.759 318.856 108.267L319.236 108.069C319.502 108.578 319.766 109.088 320.029 109.6L319.647 109.795C319.908 110.304 320.167 110.813 320.424 111.324L320.807 111.132C321.064 111.644 321.319 112.156 321.572 112.67L321.188 112.86C321.441 113.373 321.692 113.887 321.941 114.403L322.326 114.216C322.576 114.733 322.823 115.251 323.069 115.77L322.681 115.953C322.926 116.471 323.169 116.99 323.41 117.511L323.799 117.331C324.041 117.852 324.28 118.375 324.518 118.899L324.128 119.076C324.363 119.595 324.597 120.117 324.829 120.639L325.22 120.465C325.453 120.988 325.683 121.513 325.911 122.039L325.518 122.209C325.746 122.734 325.972 123.26 326.196 123.787L326.59 123.619C326.815 124.147 327.037 124.676 327.257 125.207L326.862 125.371C327.082 125.9 327.299 126.431 327.515 126.962L327.912 126.801C328.128 127.333 328.342 127.867 328.555 128.401L328.156 128.559C328.367 129.09 328.575 129.621 328.782 130.154L329.181 129.999C329.388 130.533 329.593 131.068 329.796 131.604L329.396 131.756C329.598 132.291 329.799 132.827 329.997 133.364L330.399 133.215C330.598 133.754 330.795 134.293 330.989 134.833L330.586 134.978C330.781 135.518 330.973 136.058 331.163 136.6L331.568 136.457C331.758 136.999 331.946 137.542 332.133 138.086L331.728 138.225C331.912 138.765 332.095 139.305 332.276 139.847L332.683 139.712C332.864 140.255 333.043 140.799 333.22 141.344L332.813 141.476C332.99 142.02 333.165 142.565 333.337 143.111L333.746 142.982C333.919 143.529 334.09 144.077 334.259 144.626L333.849 144.752C334.018 145.3 334.184 145.849 334.349 146.399L334.759 146.277C334.924 146.827 335.086 147.378 335.246 147.93L334.835 148.049C334.994 148.597 335.151 149.146 335.306 149.696L335.718 149.58C335.874 150.131 336.027 150.683 336.178 151.235L335.765 151.348C335.916 151.9 336.064 152.453 336.211 153.006L336.625 152.897C336.772 153.451 336.917 154.007 337.06 154.564L336.645 154.67C336.787 155.226 336.928 155.782 337.066 156.339L337.482 156.236C337.62 156.793 337.756 157.351 337.891 157.91L337.474 158.01C337.607 158.565 337.738 159.121 337.867 159.677L338.284 159.58C338.413 160.138 338.54 160.696 338.665 161.256L338.247 161.349C338.372 161.907 338.494 162.466 338.615 163.026L339.034 162.936C339.154 163.497 339.273 164.059 339.389 164.622L338.97 164.708C339.086 165.27 339.2 165.833 339.312 166.396L339.732 166.312C339.844 166.876 339.954 167.44 340.062 168.005L339.641 168.085C339.748 168.645 339.852 169.206 339.955 169.768L340.376 169.691C340.479 170.254 340.58 170.817 340.678 171.382L340.256 171.455C340.355 172.019 340.451 172.583 340.545 173.148L340.968 173.077C341.062 173.643 341.154 174.21 341.244 174.778L340.821 174.845C340.911 175.411 340.999 175.978 341.084 176.546L341.508 176.483C341.593 177.051 341.677 177.62 341.758 178.19L341.334 178.251C341.414 178.815 341.493 179.38 341.569 179.945L341.994 179.888C342.07 180.455 342.144 181.023 342.216 181.591L341.791 181.645C341.863 182.212 341.933 182.78 342.001 183.348L342.426 183.298C342.494 183.867 342.56 184.438 342.623 185.009L342.198 185.056C342.261 185.626 342.322 186.197 342.381 186.768L342.808 186.724C342.867 187.297 342.924 187.87 342.979 188.444L342.552 188.485C342.606 189.052 342.659 189.619 342.709 190.188L343.135 190.15C343.185 190.72 343.233 191.29 343.279 191.861L342.852 191.895C342.898 192.464 342.941 193.035 342.983 193.606L343.41 193.575C343.451 194.147 343.491 194.719 343.528 195.293L343.1 195.32C343.137 195.893 343.172 196.465 343.205 197.039L343.633 197.015C343.665 197.589 343.696 198.164 343.725 198.74L343.297 198.761C343.325 199.331 343.351 199.902 343.375 200.473L343.803 200.455C343.826 201.025 343.848 201.597 343.868 202.169L343.44 202.183C343.459 202.754 343.476 203.326 343.492 203.897L343.92 203.886C343.935 204.459 343.948 205.033 343.959 205.607L343.531 205.615C343.542 206.188 343.55 206.762 343.557 207.336L343.985 207.331Z" stroke="white" stroke-width="0.856833" stroke-dasharray="1.71 1.71"/>
</svg>
