<svg width="81" height="78" viewBox="0 0 81 78" fill="none" xmlns="http://www.w3.org/2000/svg">
<path d="M21.5795 40.2815C19.0187 40.2815 16.5154 39.5222 14.3862 38.0995C12.2569 36.6768 10.5974 34.6546 9.61742 32.2887C8.63745 29.9229 8.38104 27.3195 8.88063 24.8079C9.38021 22.2963 10.6134 19.9893 12.4241 18.1785C14.2349 16.3678 16.5419 15.1346 19.0535 14.635C21.5651 14.1355 24.1684 14.3919 26.5343 15.3718C28.9002 16.3518 30.9223 18.0113 32.345 20.1406C33.7677 22.2698 34.5271 24.7731 34.5271 27.3339C34.5195 30.7655 33.1529 34.0543 30.7264 36.4809C28.2999 38.9074 25.0111 40.2739 21.5795 40.2815ZM21.5795 20.1408C20.1568 20.1408 18.7661 20.5626 17.5832 21.353C16.4003 22.1434 15.4783 23.2668 14.9339 24.5812C14.3895 25.8956 14.247 27.3419 14.5246 28.7372C14.8021 30.1325 15.4872 31.4142 16.4932 32.4202C17.4991 33.4262 18.7808 34.1113 20.1762 34.3888C21.5715 34.6664 23.0178 34.5239 24.3322 33.9795C25.6465 33.435 26.7699 32.5131 27.5603 31.3302C28.3507 30.1473 28.7726 28.7566 28.7726 27.3339C28.7726 26.3893 28.5865 25.4539 28.2251 24.5812C27.8636 23.7085 27.3337 22.9155 26.6658 22.2476C25.9978 21.5796 25.2049 21.0498 24.3322 20.6883C23.4595 20.3268 22.5241 20.1408 21.5795 20.1408ZM53.2292 31.6498C50.0994 31.6498 47.0398 30.7217 44.4374 28.9828C41.835 27.2439 39.8067 24.7724 38.6089 21.8808C37.4112 18.9892 37.0978 15.8073 37.7084 12.7376C38.319 9.66788 39.8262 6.84816 42.0393 4.63501C44.2525 2.42186 47.0722 0.914684 50.142 0.304078C53.2117 -0.306529 56.3935 0.00685673 59.2852 1.2046C62.1768 2.40235 64.6483 4.43067 66.3871 7.03305C68.126 9.63544 69.0541 12.695 69.0541 15.8249C69.0465 20.0196 67.3768 24.0403 64.4107 27.0064C61.4446 29.9725 57.4239 31.6422 53.2292 31.6498ZM53.2292 5.75451C51.2375 5.75451 49.2905 6.34513 47.6344 7.45167C45.9784 8.55822 44.6876 10.131 43.9254 11.9711C43.1632 13.8112 42.9638 15.8361 43.3524 17.7895C43.7409 19.743 44.7 21.5374 46.1084 22.9457C47.5168 24.3541 49.3111 25.3132 51.2646 25.7018C53.2181 26.0903 55.2429 25.8909 57.083 25.1287C58.9231 24.3665 60.4959 23.0758 61.6024 21.4197C62.709 19.7636 63.2996 17.8166 63.2996 15.8249C63.2996 13.1541 62.2386 10.5926 60.3501 8.70405C58.4615 6.81549 55.9001 5.75451 53.2292 5.75451ZM77.6859 77.6858H28.7726C28.0095 77.6858 27.2777 77.3826 26.7381 76.8431C26.1985 76.3035 25.8953 75.5716 25.8953 74.8085C25.8953 74.0454 26.1985 73.3136 26.7381 72.774C27.2777 72.2344 28.0095 71.9313 28.7726 71.9313H74.8086V55.8762C74.801 51.6815 73.1313 47.6608 70.1652 44.6947C67.1991 41.7286 63.1784 40.0589 58.9837 40.0513H47.4747C44.4283 40.0642 41.4504 40.9561 38.8985 42.6199C36.3466 44.2838 34.3292 46.6489 33.0885 49.4312C32.9495 49.7986 32.7368 50.1336 32.4634 50.4156C32.1901 50.6977 31.8619 50.9208 31.499 51.0712C31.1362 51.2216 30.7463 51.2961 30.3536 51.2901C29.9609 51.2842 29.5735 51.1979 29.2154 51.0365C28.8573 50.8752 28.536 50.6422 28.2713 50.352C28.0067 50.0617 27.8042 49.7204 27.6765 49.349C27.5487 48.9775 27.4984 48.5839 27.5286 48.1922C27.5587 47.8006 27.6688 47.4193 27.8519 47.0718C29.5445 43.2666 32.3048 40.0342 35.7981 37.7666C39.2914 35.499 43.3676 34.2937 47.5323 34.2968H59.0413C64.7645 34.2968 70.2533 36.5704 74.3002 40.6173C78.3471 44.6642 80.6207 50.153 80.6207 55.8762V74.8085C80.6207 75.1913 80.5444 75.5702 80.3963 75.9231C80.2481 76.2759 80.031 76.5957 79.7577 76.8637C79.4844 77.1316 79.1604 77.3423 78.8046 77.4835C78.4489 77.6247 78.0685 77.6934 77.6859 77.6858Z" fill="#161F6D"/>
<path d="M40.2815 77.6857H2.87725C2.11416 77.6857 1.38232 77.3826 0.842727 76.843C0.303138 76.3034 0 75.5715 0 74.8085V64.7381C0 59.0149 2.27354 53.5261 6.32045 49.4791C10.3674 45.4322 15.8562 43.1587 21.5794 43.1587C27.3026 43.1587 32.7914 45.4322 36.8383 49.4791C40.8852 53.5261 43.1588 59.0149 43.1588 64.7381V74.8085C43.1588 75.5715 42.8556 76.3034 42.316 76.843C41.7765 77.3826 41.0446 77.6857 40.2815 77.6857ZM5.7545 71.9312H37.4043V64.7381C37.4043 60.5411 35.737 56.5159 32.7693 53.5482C29.8015 50.5805 25.7764 48.9132 21.5794 48.9132C17.3824 48.9132 13.3572 50.5805 10.3895 53.5482C7.42176 56.5159 5.7545 60.5411 5.7545 64.7381V71.9312Z" fill="#161F6D"/>
<path d="M14.386 69.0544C13.6229 69.0544 12.8911 68.7512 12.3515 68.2116C11.8119 67.672 11.5088 66.9402 11.5088 66.1771V60.4226C11.5088 59.6595 11.8119 58.9277 12.3515 58.3881C12.8911 57.8485 13.6229 57.5454 14.386 57.5454C15.1491 57.5454 15.881 57.8485 16.4206 58.3881C16.9602 58.9277 17.2633 59.6595 17.2633 60.4226V66.1771C17.2633 66.9402 16.9602 67.672 16.4206 68.2116C15.881 68.7512 15.1491 69.0544 14.386 69.0544ZM66.1766 68.6228C65.4135 68.6228 64.6816 68.3196 64.142 67.78C63.6024 67.2405 63.2993 66.5086 63.2993 65.7455V59.991C63.2993 59.2279 63.6024 58.4961 64.142 57.9565C64.6816 57.4169 65.4135 57.1138 66.1766 57.1138C66.9397 57.1138 67.6715 57.4169 68.2111 57.9565C68.7507 58.4961 69.0538 59.2279 69.0538 59.991V65.7455C69.0538 66.5086 68.7507 67.2405 68.2111 67.78C67.6715 68.3196 66.9397 68.6228 66.1766 68.6228Z" fill="#161F6D"/>
</svg>
