<svg width="156" height="490" viewBox="0 0 156 490" fill="none" xmlns="http://www.w3.org/2000/svg">
<path d="M155.981 241.999C155.99 242.665 155.995 243.332 155.998 243.999L155.498 244.001C155.499 244.334 155.5 244.667 155.5 245C155.5 245.333 155.499 245.666 155.498 245.998L155.998 246C155.995 246.668 155.99 247.334 155.982 248L155.482 247.994C155.473 248.658 155.462 249.322 155.449 249.985L155.949 249.996C155.935 250.66 155.919 251.324 155.899 251.987L155.4 251.973C155.381 252.635 155.359 253.296 155.334 253.957L155.834 253.975C155.81 254.637 155.782 255.299 155.752 255.959L155.253 255.937C155.223 256.597 155.19 257.257 155.155 257.916L155.654 257.942C155.619 258.609 155.58 259.274 155.539 259.939L155.04 259.908C154.999 260.571 154.955 261.234 154.909 261.896L155.408 261.931C155.361 262.594 155.312 263.257 155.26 263.919L154.761 263.88C154.709 264.54 154.655 265.2 154.598 265.859L155.096 265.902C155.038 266.563 154.978 267.222 154.915 267.881L154.418 267.834C154.355 268.491 154.29 269.148 154.222 269.804L154.719 269.856C154.65 270.518 154.579 271.18 154.505 271.842L154.008 271.786C153.934 272.447 153.857 273.106 153.778 273.765L154.274 273.825C154.195 274.485 154.112 275.145 154.027 275.803L153.531 275.74C153.447 276.397 153.359 277.053 153.269 277.709L153.764 277.777C153.674 278.434 153.581 279.09 153.485 279.746L152.991 279.673C152.895 280.327 152.797 280.981 152.696 281.633L153.19 281.709C153.089 282.367 152.984 283.023 152.877 283.679L152.384 283.598C152.335 283.896 152.286 284.194 152.236 284.492C152.177 284.849 152.116 285.206 152.055 285.563L152.548 285.648C152.435 286.303 152.32 286.958 152.202 287.612L151.71 287.523C151.592 288.175 151.472 288.827 151.349 289.477L151.84 289.57C151.717 290.222 151.591 290.873 151.462 291.523L150.972 291.426C150.844 292.075 150.713 292.723 150.579 293.37L151.069 293.471C150.935 294.121 150.798 294.771 150.658 295.42L150.169 295.315C150.03 295.964 149.887 296.613 149.742 297.26L150.23 297.37C150.085 298.018 149.937 298.666 149.786 299.313L149.299 299.2C149.149 299.846 148.996 300.49 148.84 301.134L149.326 301.252C149.17 301.897 149.012 302.541 148.851 303.184L148.366 303.062C148.205 303.704 148.042 304.345 147.876 304.984L148.36 305.11C148.193 305.753 148.024 306.394 147.852 307.035L147.369 306.905C147.197 307.547 147.022 308.187 146.844 308.827L147.326 308.96C147.148 309.601 146.968 310.241 146.785 310.879L146.305 310.742C146.227 311.012 146.149 311.281 146.071 311.551C145.965 311.918 145.857 312.284 145.749 312.65L146.229 312.792C146.04 313.429 145.85 314.064 145.656 314.698L145.178 314.553C144.985 315.186 144.79 315.818 144.592 316.449L145.069 316.598C144.87 317.232 144.669 317.864 144.465 318.495L143.989 318.341C143.785 318.973 143.579 319.603 143.369 320.233L143.844 320.391C143.634 321.022 143.422 321.651 143.207 322.28L142.734 322.118C142.52 322.746 142.303 323.372 142.084 323.997L142.555 324.162C142.336 324.789 142.113 325.414 141.888 326.038L141.418 325.868C141.193 326.491 140.967 327.113 140.737 327.733L141.206 327.907C140.976 328.529 140.743 329.15 140.508 329.771L140.04 329.593C139.805 330.214 139.567 330.833 139.327 331.451L139.793 331.632C139.552 332.252 139.308 332.87 139.062 333.487L138.598 333.302C138.353 333.918 138.105 334.532 137.854 335.146L138.317 335.335C138.066 335.949 137.813 336.563 137.557 337.175L137.096 336.982C136.84 337.593 136.583 338.203 136.322 338.811L136.782 339.008C136.521 339.618 136.258 340.227 135.992 340.834L135.534 340.634C135.461 340.8 135.388 340.966 135.315 341.132C135.121 341.573 134.925 342.014 134.728 342.454L135.185 342.658C134.913 343.264 134.64 343.87 134.363 344.474L133.909 344.266C133.633 344.868 133.355 345.47 133.074 346.07L133.527 346.282C133.246 346.883 132.962 347.483 132.676 348.082L132.225 347.866C131.939 348.464 131.652 349.06 131.361 349.655L131.811 349.874C131.52 350.471 131.226 351.066 130.93 351.66L130.483 351.437C130.187 352.03 129.889 352.623 129.588 353.214L130.034 353.44C129.733 354.033 129.429 354.623 129.124 355.213L128.68 354.983C128.374 355.571 128.067 356.158 127.757 356.743L128.199 356.977C127.888 357.564 127.575 358.149 127.26 358.733L126.82 358.496C126.505 359.078 126.188 359.66 125.868 360.24L126.306 360.481C125.986 361.062 125.664 361.642 125.339 362.221L124.903 361.976C124.578 362.554 124.251 363.131 123.922 363.707L124.356 363.955C124.026 364.531 123.694 365.106 123.359 365.68L122.927 365.428C122.593 366.001 122.257 366.572 121.919 367.141L122.348 367.397C122.009 367.967 121.668 368.537 121.324 369.104L120.896 368.845C120.553 369.412 120.208 369.977 119.86 370.541L120.286 370.803C119.937 371.368 119.587 371.932 119.234 372.494L118.81 372.228C118.458 372.79 118.103 373.349 117.746 373.908L118.167 374.177C117.809 374.737 117.449 375.295 117.087 375.851L116.668 375.578C116.306 376.134 115.942 376.687 115.576 377.24L115.993 377.516C115.626 378.069 115.257 378.621 114.886 379.172L114.472 378.892C114.101 379.441 113.729 379.989 113.354 380.535L113.766 380.818C113.39 381.366 113.012 381.911 112.632 382.456L112.222 382.169C111.996 382.494 111.768 382.818 111.54 383.142C111.386 383.36 111.232 383.577 111.077 383.795L111.485 384.084C111.1 384.625 110.714 385.165 110.325 385.703L109.919 385.41C109.531 385.947 109.141 386.483 108.748 387.017L109.151 387.313C108.758 387.848 108.363 388.381 107.965 388.913L107.565 388.613C107.168 389.144 106.769 389.673 106.368 390.201L106.766 390.503C106.364 391.032 105.96 391.559 105.554 392.084L105.158 391.778C104.753 392.302 104.345 392.825 103.936 393.345L104.329 393.654C103.919 394.176 103.506 394.697 103.092 395.215L102.701 394.903C102.287 395.421 101.871 395.937 101.454 396.451L101.842 396.766C101.423 397.281 101.002 397.795 100.579 398.307L100.194 397.988C99.7715 398.499 99.3474 399.008 98.9213 399.516L99.3042 399.838C98.8772 400.346 98.4482 400.853 98.0171 401.358L97.6368 401.033C97.2067 401.537 96.7746 402.039 96.3405 402.54L96.7181 402.867C96.2831 403.369 95.8461 403.868 95.407 404.366L95.032 404.036C94.5938 404.533 94.1536 405.028 93.7113 405.521L94.0837 405.855C93.6406 406.35 93.1955 406.842 92.7484 407.333L92.3787 406.997C91.9325 407.487 91.4843 407.975 91.0341 408.462L91.4011 408.801C90.9502 409.289 90.4973 409.774 90.0424 410.258L89.6781 409.915C89.2244 410.398 88.7687 410.879 88.3111 411.358L88.6726 411.703C88.2141 412.183 87.7536 412.661 87.2912 413.137L86.9324 412.789C86.4709 413.264 86.0074 413.738 85.5421 414.21L85.898 414.561C85.4317 415.034 84.9634 415.505 84.4933 415.974L84.1401 415.62C83.6709 416.088 83.1998 416.554 82.7267 417.019L83.0771 417.375C82.6033 417.841 82.1277 418.304 81.6501 418.765L81.3027 418.406C80.8265 418.866 80.3484 419.324 79.8684 419.781L80.213 420.143C79.7321 420.6 79.2494 421.056 78.7647 421.51L78.423 421.145C77.9393 421.597 77.4538 422.048 76.9664 422.497L77.3052 422.865C76.8168 423.315 76.3266 423.763 75.8346 424.209L75.4987 423.839C75.0076 424.284 74.5147 424.727 74.02 425.169L74.3529 425.542C73.8575 425.984 73.3603 426.424 72.8613 426.862L72.5313 426.487C72.2882 426.7 72.0446 426.913 71.8006 427.126C71.5454 427.348 71.2896 427.57 71.0334 427.792L71.3604 428.17C70.8583 428.604 70.3544 429.036 69.8488 429.466L69.5248 429.085C69.0201 429.514 68.5137 429.942 68.0055 430.367L68.3264 430.75C67.8172 431.177 67.3062 431.601 66.7934 432.023L66.4756 431.637C65.9638 432.059 65.4503 432.478 64.9351 432.896L65.2499 433.284C64.7341 433.702 64.2165 434.118 63.6972 434.532L63.3855 434.141C62.8679 434.554 62.3486 434.965 61.8275 435.374L62.1362 435.767C61.6141 436.177 61.0903 436.584 60.5648 436.99L60.2593 436.594C59.9546 436.829 59.6492 437.064 59.3433 437.298C59.1228 437.466 58.902 437.634 58.6809 437.802L58.9833 438.201C58.4544 438.602 57.9239 439.002 57.3916 439.399L57.0924 438.999C56.5612 439.395 56.0284 439.79 55.4938 440.183L55.7899 440.586C55.2548 440.979 54.7181 441.37 54.1797 441.759L53.8868 441.354C53.3504 441.742 52.8123 442.127 52.2726 442.511L52.5622 442.918C52.0214 443.303 51.479 443.685 50.9349 444.065L50.6485 443.655C50.1055 444.035 49.5609 444.412 49.0147 444.788L49.2979 445.2C48.7507 445.576 48.2018 445.95 47.6512 446.322L47.3713 445.908C46.8219 446.279 46.2709 446.648 45.7183 447.015L45.995 447.432C45.4419 447.799 44.8872 448.164 44.3309 448.528L44.0576 448.109C43.5035 448.471 42.9479 448.831 42.3907 449.188L42.6608 449.609C42.1025 449.967 41.5427 450.323 40.9814 450.678L40.7146 450.255C40.1543 450.608 39.5926 450.959 39.0292 451.309L39.2927 451.734C38.7282 452.083 38.1623 452.431 37.5948 452.777L37.3347 452.35C36.7684 452.695 36.2005 453.037 35.6311 453.378L35.8878 453.807C35.3179 454.148 34.7465 454.487 34.1736 454.824L33.9203 454.393C33.3499 454.728 32.778 455.061 32.2047 455.392L32.4547 455.825C31.8802 456.156 31.3043 456.486 30.7269 456.813L30.4804 456.378C29.9041 456.705 29.3264 457.029 28.7473 457.351L28.9904 457.788C28.4101 458.111 27.8284 458.432 27.2452 458.75L27.0056 458.311C26.4236 458.629 25.8401 458.945 25.2552 459.258L25.4914 459.699C24.9059 460.013 24.319 460.325 23.7306 460.634L23.4979 460.192C22.9125 460.499 22.3258 460.805 21.7376 461.109L21.9669 461.553C21.3776 461.857 20.7869 462.159 20.1948 462.458L19.9691 462.012C19.3781 462.311 18.7859 462.608 18.1922 462.903L18.4145 463.351C17.8197 463.646 17.2235 463.939 16.626 464.23L16.4072 463.78C15.8109 464.07 15.2132 464.358 14.6141 464.644L14.8293 465.095C14.2294 465.381 13.6282 465.665 13.0256 465.946L12.814 465.493C12.215 465.773 11.6147 466.051 11.013 466.326L11.2212 466.781C10.6183 467.057 10.0142 467.331 9.40881 467.602L9.20425 467.146C8.60004 467.417 7.99454 467.685 7.38773 467.952L7.58868 468.41C6.98068 468.676 6.37143 468.941 5.76089 469.203L5.56351 468.744C4.95416 469.006 4.34354 469.265 3.73166 469.523L3.92542 469.983C3.31235 470.241 2.69803 470.497 2.08246 470.75L1.8923 470.287C1.28104 470.539 0.668549 470.788 0.0548401 471.034L0.241364 471.498C-0.373566 471.746 -0.989716 471.991 -1.60709 472.233L-1.78998 471.768C-2.40613 472.01 -3.0235 472.25 -3.64206 472.487L-3.4628 472.954C-4.08258 473.192 -4.70358 473.428 -5.32574 473.661L-5.50134 473.193C-6.12228 473.426 -6.74445 473.656 -7.36777 473.885L-7.19583 474.354C-7.82037 474.583 -8.44614 474.809 -9.07303 475.033L-9.24124 474.562C-9.86389 474.785 -10.4877 475.005 -11.1126 475.223L-10.948 475.695C-11.5736 475.913 -12.2004 476.129 -12.8283 476.342L-12.9892 475.869C-13.6158 476.082 -14.2436 476.292 -14.8725 476.5L-14.7154 476.975C-15.3455 477.184 -15.9768 477.39 -16.6092 477.594L-16.7626 477.118C-17.3938 477.322 -18.026 477.523 -18.6594 477.722L-18.5096 478.199C-19.1442 478.398 -19.7799 478.595 -20.4167 478.789L-20.5627 478.311C-21.1955 478.504 -21.8295 478.695 -22.4644 478.883L-22.3222 479.363C-22.9571 479.551 -23.593 479.737 -24.2299 479.921L-24.3684 479.44C-25.0042 479.624 -25.6409 479.804 -26.2787 479.983L-26.144 480.464C-26.783 480.643 -27.4231 480.82 -28.0643 480.994L-28.1953 480.511C-28.8351 480.685 -29.476 480.857 -30.118 481.025L-29.9907 481.509C-30.6339 481.678 -31.2781 481.845 -31.9233 482.01L-32.0468 481.525C-32.6888 481.689 -33.3318 481.85 -33.9757 482.009L-33.856 482.494C-34.4986 482.652 -35.1422 482.809 -35.7867 482.962L-35.9026 482.476C-36.5459 482.629 -37.1902 482.78 -37.8354 482.929L-37.7233 483.416C-38.3698 483.565 -39.0172 483.711 -39.6656 483.855L-39.774 483.367C-40.4211 483.511 -41.0692 483.652 -41.7182 483.791L-41.6136 484.28C-42.2639 484.419 -42.9152 484.555 -43.5674 484.689L-43.6681 484.2C-44.3182 484.333 -44.9692 484.465 -45.6211 484.594L-45.5241 485.084C-46.1729 485.212 -46.8227 485.338 -47.4733 485.462L-47.5664 484.97C-47.8439 485.023 -48.1215 485.075 -48.3993 485.127C-48.7716 485.196 -49.1442 485.265 -49.5172 485.332L-49.4278 485.824C-50.0802 485.943 -50.7335 486.059 -51.3876 486.173L-51.4732 485.68C-52.126 485.793 -52.7798 485.904 -53.4344 486.013L-53.3527 486.506C-54.0085 486.615 -54.6653 486.721 -55.3229 486.825L-55.4008 486.331C-56.0572 486.434 -56.7144 486.536 -57.3724 486.634L-57.2983 487.129C-57.9528 487.227 -58.608 487.322 -59.2641 487.415L-59.3344 486.92C-59.6462 486.965 -59.9582 487.008 -60.2703 487.052C-60.6128 487.099 -60.9555 487.146 -61.2985 487.192L-61.232 487.687C-61.8888 487.775 -62.5463 487.861 -63.2047 487.944L-63.2674 487.448C-63.5437 487.483 -63.8202 487.517 -64.0968 487.552C-64.478 487.598 -64.8594 487.645 -65.241 487.69L-65.1822 488.186C-65.8421 488.265 -66.5028 488.34 -67.1644 488.414L-67.2194 487.917C-67.8797 487.99 -68.5407 488.06 -69.2025 488.128L-69.1513 488.626C-69.8114 488.694 -70.4723 488.759 -71.1339 488.822L-71.1813 488.325C-71.8381 488.387 -72.4957 488.447 -73.154 488.505L-73.1104 489.003C-73.77 489.061 -74.4303 489.116 -75.0914 489.169L-75.1312 488.67C-75.7909 488.723 -76.4514 488.773 -77.1126 488.821L-77.0766 489.32C-77.7391 489.367 -78.4023 489.413 -79.0662 489.456L-79.0983 488.957C-79.761 488.999 -80.4243 489.04 -81.0883 489.077L-81.0599 489.577C-81.7251 489.614 -82.391 489.65 -83.0576 489.682L-83.0821 489.183C-83.7404 489.215 -84.3993 489.245 -85.0588 489.273L-85.0381 489.772C-85.6989 489.8 -86.3604 489.825 -87.0225 489.847L-87.0395 489.348C-87.7004 489.37 -88.3619 489.39 -89.0241 489.408L-89.0109 489.908C-89.6743 489.925 -90.3383 489.94 -91.0031 489.953L-91.0125 489.453C-91.676 489.465 -92.34 489.475 -93.0047 489.483L-92.9991 489.983C-93.665 489.991 -94.3316 489.996 -94.9988 489.998L-95.0007 489.498C-95.3336 489.499 -95.6667 489.5 -96 489.5C-96.333 489.5 -96.6658 489.499 -96.9986 489.498L-97.0004 489.998C-97.6676 489.996 -98.3342 489.991 -99.0001 489.983L-98.9945 489.483C-99.6592 489.475 -100.323 489.465 -100.987 489.453L-100.996 489.953C-101.661 489.94 -102.325 489.925 -102.988 489.908L-102.975 489.408C-103.637 489.39 -104.299 489.37 -104.96 489.348L-104.977 489.847C-105.639 489.825 -106.3 489.8 -106.961 489.772L-106.94 489.273C-107.6 489.245 -108.259 489.215 -108.917 489.183L-108.942 489.682C-109.608 489.65 -110.274 489.614 -110.939 489.577L-110.911 489.077C-111.575 489.04 -112.238 488.999 -112.901 488.957L-112.933 489.456C-113.597 489.413 -114.26 489.367 -114.923 489.32L-114.887 488.821C-115.548 488.773 -116.208 488.723 -116.868 488.67L-116.908 489.169C-117.569 489.116 -118.229 489.061 -118.889 489.003L-118.845 488.505C-119.504 488.447 -120.161 488.387 -120.818 488.325L-120.865 488.822C-121.527 488.759 -122.188 488.694 -122.848 488.626L-122.797 488.129C-123.459 488.06 -124.12 487.99 -124.78 487.917L-124.835 488.414C-125.496 488.34 -126.157 488.265 -126.817 488.186L-126.758 487.69C-127.417 487.612 -128.075 487.531 -128.732 487.448L-128.795 487.944C-129.453 487.861 -130.111 487.775 -130.767 487.687L-130.701 487.192C-131.356 487.104 -132.011 487.013 -132.665 486.921L-132.735 487.416C-133.391 487.322 -134.047 487.227 -134.701 487.129L-134.627 486.634C-135.285 486.536 -135.942 486.435 -136.598 486.331L-136.676 486.825C-137.334 486.721 -137.991 486.615 -138.647 486.506L-138.565 486.013C-139.22 485.904 -139.873 485.794 -140.526 485.68L-140.612 486.173C-141.266 486.059 -141.919 485.943 -142.572 485.825L-142.482 485.333C-143.133 485.214 -143.784 485.094 -144.433 484.97L-144.526 485.462C-145.177 485.338 -145.826 485.212 -146.475 485.084L-146.378 484.594C-147.03 484.465 -147.681 484.334 -148.331 484.2L-148.432 484.69C-149.084 484.555 -149.735 484.419 -150.386 484.28L-150.281 483.791C-150.93 483.652 -151.578 483.511 -152.225 483.367L-152.334 483.855C-152.982 483.711 -153.63 483.565 -154.276 483.416L-154.164 482.929C-154.809 482.78 -155.453 482.629 -156.097 482.476L-156.213 482.962C-156.857 482.809 -157.501 482.653 -158.143 482.494L-158.024 482.009C-158.668 481.85 -159.311 481.689 -159.953 481.525L-160.076 482.01C-160.721 481.845 -161.366 481.678 -162.009 481.509L-161.881 481.026C-162.523 480.857 -163.164 480.685 -163.804 480.512L-163.935 480.994C-164.576 480.82 -165.216 480.644 -165.855 480.465L-165.721 479.983C-166.359 479.805 -166.995 479.624 -167.631 479.44L-167.77 479.921C-168.407 479.737 -169.042 479.551 -169.677 479.363L-169.535 478.883C-170.17 478.695 -170.804 478.504 -171.437 478.311L-171.583 478.789C-172.22 478.595 -172.855 478.398 -173.49 478.199L-173.34 477.722C-173.973 477.523 -174.606 477.322 -175.237 477.118L-175.39 477.594C-176.023 477.39 -176.654 477.184 -177.284 476.975L-177.127 476.501C-177.756 476.292 -178.384 476.082 -179.01 475.869L-179.171 476.342C-179.799 476.129 -180.426 475.913 -181.051 475.695L-180.887 475.223C-181.512 475.005 -182.136 474.785 -182.758 474.563L-182.927 475.033C-183.553 474.809 -184.179 474.583 -184.804 474.354L-184.632 473.885C-185.255 473.657 -185.877 473.426 -186.498 473.193L-186.674 473.661C-187.296 473.428 -187.917 473.192 -188.537 472.954L-188.358 472.488C-188.976 472.25 -189.593 472.01 -190.21 471.768L-190.392 472.233C-191.01 471.991 -191.626 471.746 -192.241 471.498L-192.054 471.035C-192.668 470.788 -193.281 470.539 -193.892 470.287L-194.082 470.75C-194.698 470.497 -195.312 470.241 -195.925 469.984L-195.731 469.523C-196.343 469.265 -196.954 469.006 -197.563 468.744L-197.76 469.204C-198.371 468.941 -198.98 468.677 -199.588 468.41L-199.387 467.952C-199.994 467.686 -200.6 467.417 -201.204 467.146L-201.408 467.602C-202.014 467.331 -202.618 467.057 -203.221 466.781L-203.013 466.327C-203.614 466.051 -204.215 465.774 -204.814 465.494L-205.025 465.947C-205.628 465.665 -206.229 465.381 -206.829 465.095L-206.614 464.644C-207.213 464.358 -207.811 464.07 -208.407 463.78L-208.626 464.23C-209.223 463.939 -209.819 463.646 -210.414 463.351L-210.192 462.903C-210.786 462.608 -211.378 462.312 -211.969 462.012L-212.195 462.459C-212.787 462.159 -213.377 461.857 -213.967 461.553L-213.737 461.109C-214.325 460.805 -214.912 460.5 -215.498 460.192L-215.73 460.634C-216.319 460.325 -216.906 460.013 -217.491 459.699L-217.255 459.259C-217.84 458.945 -218.423 458.629 -219.005 458.312L-219.245 458.75C-219.828 458.432 -220.41 458.111 -220.99 457.788L-220.747 457.351C-221.326 457.029 -221.904 456.705 -222.48 456.378L-222.727 456.813C-223.304 456.486 -223.88 456.157 -224.454 455.825L-224.204 455.392C-224.778 455.061 -225.35 454.728 -225.92 454.393L-226.173 454.824C-226.746 454.487 -227.318 454.148 -227.888 453.807L-227.631 453.378C-228.2 453.038 -228.768 452.695 -229.334 452.35L-229.594 452.777C-230.162 452.431 -230.728 452.084 -231.292 451.734L-231.029 451.309C-231.592 450.96 -232.154 450.608 -232.714 450.255L-232.981 450.678C-233.542 450.324 -234.102 449.967 -234.66 449.609L-234.39 449.188C-234.948 448.831 -235.503 448.471 -236.057 448.109L-236.331 448.528C-236.887 448.165 -237.442 447.799 -237.995 447.432L-237.718 447.015C-238.271 446.648 -238.822 446.279 -239.371 445.908L-239.651 446.322C-240.201 445.95 -240.75 445.576 -241.298 445.2L-241.014 444.788C-241.561 444.413 -242.105 444.035 -242.648 443.656L-242.935 444.065C-243.479 443.685 -244.021 443.303 -244.562 442.919L-244.272 442.511C-244.812 442.127 -245.35 441.742 -245.887 441.354L-246.179 441.759C-246.718 441.37 -247.255 440.979 -247.79 440.586L-247.494 440.183C-248.028 439.79 -248.561 439.396 -249.092 438.999L-249.391 439.399C-249.924 439.002 -250.454 438.602 -250.983 438.201L-250.681 437.803C-251.208 437.402 -251.735 436.999 -252.259 436.594L-252.565 436.99C-253.09 436.584 -253.614 436.177 -254.136 435.767L-253.827 435.374C-254.348 434.965 -254.868 434.554 -255.385 434.142L-255.697 434.533C-256.216 434.119 -256.734 433.702 -257.25 433.284L-256.935 432.896C-257.45 432.478 -257.964 432.059 -258.475 431.638L-258.793 432.023C-259.306 431.601 -259.817 431.177 -260.326 430.751L-260.005 430.367C-260.513 429.942 -261.02 429.515 -261.525 429.085L-261.848 429.466C-262.354 429.036 -262.858 428.604 -263.36 428.17L-263.033 427.792C-263.534 427.359 -264.034 426.924 -264.531 426.487L-264.861 426.863C-265.36 426.424 -265.857 425.984 -266.353 425.542L-266.02 425.169C-266.514 424.728 -267.007 424.284 -267.498 423.839L-267.834 424.21C-268.326 423.763 -268.817 423.315 -269.305 422.865L-268.966 422.498C-269.454 422.049 -269.939 421.598 -270.423 421.145L-270.764 421.51C-271.249 421.056 -271.732 420.601 -272.213 420.143L-271.868 419.781C-272.348 419.325 -272.826 418.866 -273.302 418.406L-273.65 418.766C-274.127 418.304 -274.603 417.841 -275.077 417.376L-274.727 417.019C-275.2 416.554 -275.671 416.088 -276.14 415.62L-276.493 415.974C-276.963 415.505 -277.431 415.034 -277.898 414.561L-277.542 414.21C-278.007 413.738 -278.471 413.265 -278.932 412.789L-279.291 413.138C-279.753 412.661 -280.214 412.183 -280.672 411.703L-280.311 411.358C-280.768 410.879 -281.224 410.398 -281.678 409.916L-282.042 410.258C-282.497 409.774 -282.95 409.289 -283.401 408.801L-283.034 408.462C-283.484 407.975 -283.932 407.487 -284.378 406.997L-284.748 407.334C-285.195 406.843 -285.64 406.35 -286.083 405.855L-285.711 405.522C-286.153 405.028 -286.594 404.533 -287.032 404.036L-287.407 404.367C-287.846 403.869 -288.283 403.369 -288.718 402.867L-288.34 402.54C-288.774 402.039 -289.206 401.537 -289.637 401.033L-290.017 401.358C-290.448 400.853 -290.877 400.346 -291.304 399.838L-290.921 399.516C-291.347 399.009 -291.771 398.5 -292.193 397.989L-292.579 398.307C-293.002 397.795 -293.423 397.282 -293.841 396.766L-293.453 396.451C-293.871 395.937 -294.287 395.421 -294.701 394.903L-295.091 395.216C-295.506 394.697 -295.918 394.177 -296.329 393.655L-295.936 393.346C-296.345 392.825 -296.753 392.302 -297.158 391.778L-297.553 392.084C-297.96 391.559 -298.364 391.032 -298.766 390.504L-298.368 390.201C-298.769 389.673 -299.168 389.144 -299.564 388.614L-299.965 388.913C-300.362 388.382 -300.758 387.848 -301.151 387.313L-300.748 387.017C-301.141 386.483 -301.531 385.948 -301.919 385.411L-302.324 385.704C-302.713 385.166 -303.1 384.626 -303.485 384.085L-303.077 383.795C-303.461 383.255 -303.843 382.713 -304.222 382.17L-304.632 382.456C-305.012 381.912 -305.39 381.366 -305.766 380.818L-305.354 380.536C-305.728 379.989 -306.101 379.442 -306.472 378.892L-306.886 379.172C-307.257 378.622 -307.626 378.07 -307.993 377.516L-307.576 377.24C-307.942 376.688 -308.306 376.134 -308.668 375.579L-309.087 375.851C-309.449 375.295 -309.809 374.737 -310.167 374.177L-309.745 373.908C-310.103 373.35 -310.457 372.79 -310.81 372.228L-311.233 372.494C-311.586 371.932 -311.937 371.369 -312.285 370.804L-311.86 370.541C-312.208 369.978 -312.553 369.412 -312.896 368.846L-313.324 369.105C-313.667 368.537 -314.009 367.968 -314.348 367.397L-313.918 367.141C-314.257 366.572 -314.593 366.001 -314.927 365.428L-315.359 365.68C-315.693 365.107 -316.026 364.532 -316.356 363.955L-315.922 363.707C-316.251 363.132 -316.578 362.555 -316.903 361.977L-317.339 362.221C-317.663 361.643 -317.986 361.063 -318.306 360.481L-317.868 360.24C-318.188 359.66 -318.505 359.079 -318.819 358.496L-319.259 358.734C-319.575 358.15 -319.888 357.564 -320.198 356.978L-319.757 356.744C-320.067 356.158 -320.374 355.571 -320.68 354.983L-321.123 355.213C-321.429 354.624 -321.733 354.033 -322.034 353.441L-321.588 353.214C-321.889 352.623 -322.187 352.031 -322.483 351.437L-322.93 351.66C-323.226 351.066 -323.519 350.471 -323.81 349.875L-323.361 349.655C-323.651 349.06 -323.939 348.464 -324.225 347.867L-324.676 348.082C-324.962 347.483 -325.246 346.883 -325.527 346.282L-325.074 346.07C-325.354 345.47 -325.633 344.869 -325.908 344.266L-326.363 344.474C-326.639 343.87 -326.913 343.265 -327.185 342.658L-326.728 342.454C-326.999 341.849 -327.268 341.242 -327.534 340.634L-327.992 340.835C-328.258 340.227 -328.521 339.618 -328.782 339.008L-328.322 338.811C-328.583 338.203 -328.84 337.593 -329.096 336.982L-329.557 337.175C-329.813 336.563 -330.066 335.95 -330.317 335.335L-329.854 335.146C-330.105 334.533 -330.352 333.918 -330.598 333.303L-331.062 333.488C-331.308 332.871 -331.552 332.252 -331.793 331.633L-331.327 331.452C-331.567 330.833 -331.805 330.214 -332.04 329.594L-332.508 329.771C-332.743 329.151 -332.976 328.53 -333.206 327.907L-332.737 327.734C-332.966 327.113 -333.193 326.492 -333.418 325.869L-333.888 326.039C-334.113 325.414 -334.335 324.789 -334.555 324.163L-334.083 323.997C-334.303 323.372 -334.52 322.746 -334.734 322.119L-335.207 322.28C-335.422 321.652 -335.634 321.022 -335.844 320.391L-335.369 320.234C-335.578 319.604 -335.785 318.973 -335.989 318.342L-336.465 318.495C-336.669 317.864 -336.87 317.232 -337.069 316.599L-336.592 316.449C-336.79 315.818 -336.985 315.186 -337.178 314.553L-337.656 314.699C-337.85 314.065 -338.04 313.429 -338.228 312.793L-337.749 312.651C-337.937 312.016 -338.122 311.379 -338.304 310.742L-338.785 310.88C-338.968 310.241 -339.148 309.602 -339.326 308.961L-338.844 308.827C-339.022 308.188 -339.196 307.547 -339.369 306.906L-339.852 307.036C-340.023 306.395 -340.193 305.753 -340.36 305.111L-339.876 304.985C-340.042 304.345 -340.205 303.705 -340.366 303.063L-340.851 303.184C-341.012 302.541 -341.17 301.897 -341.326 301.252L-340.84 301.135C-340.996 300.491 -341.149 299.846 -341.299 299.201L-341.786 299.314C-341.937 298.667 -342.085 298.019 -342.23 297.37L-341.742 297.261C-341.887 296.613 -342.029 295.965 -342.169 295.315L-342.658 295.42C-342.798 294.772 -342.935 294.122 -343.069 293.471L-342.579 293.37C-342.713 292.723 -342.844 292.076 -342.972 291.427L-343.462 291.524C-343.591 290.874 -343.717 290.223 -343.84 289.571L-343.349 289.478C-343.472 288.827 -343.592 288.176 -343.71 287.524L-344.202 287.612C-344.32 286.959 -344.435 286.304 -344.548 285.648L-344.055 285.564C-344.167 284.91 -344.277 284.255 -344.384 283.599L-344.877 283.679C-344.984 283.024 -345.088 282.367 -345.19 281.71L-344.696 281.634C-344.797 280.981 -344.895 280.328 -344.99 279.674L-345.485 279.746C-345.581 279.091 -345.674 278.435 -345.764 277.778L-345.269 277.71C-345.359 277.054 -345.447 276.397 -345.531 275.74L-346.027 275.804C-346.112 275.146 -346.195 274.486 -346.274 273.826L-345.778 273.766C-345.857 273.107 -345.934 272.447 -346.008 271.787L-346.505 271.842C-346.579 271.181 -346.65 270.519 -346.719 269.856L-346.222 269.805C-346.29 269.149 -346.355 268.492 -346.418 267.834L-346.915 267.882C-346.978 267.223 -347.038 266.563 -347.096 265.903L-346.598 265.86C-346.655 265.201 -346.709 264.541 -346.761 263.88L-347.26 263.92C-347.312 263.258 -347.361 262.595 -347.408 261.932L-346.909 261.897C-346.955 261.235 -346.999 260.572 -347.04 259.909L-347.539 259.94C-347.58 259.275 -347.619 258.609 -347.654 257.943L-347.155 257.916C-347.19 257.257 -347.223 256.598 -347.253 255.937L-347.752 255.96C-347.782 255.299 -347.809 254.638 -347.834 253.976L-347.334 253.958C-347.359 253.297 -347.381 252.636 -347.4 251.974L-347.899 251.988C-347.919 251.325 -347.935 250.661 -347.949 249.996L-347.449 249.986C-347.462 249.323 -347.473 248.659 -347.482 247.995L-347.981 248.001C-347.99 247.335 -347.995 246.668 -347.998 246.001L-347.498 245.999C-347.499 245.666 -347.5 245.333 -347.5 245C-347.5 244.667 -347.499 244.334 -347.498 244.002L-347.998 244C-347.995 243.332 -347.99 242.666 -347.981 242L-347.482 242.006C-347.473 241.342 -347.462 240.678 -347.449 240.015L-347.949 240.004C-347.935 239.34 -347.919 238.676 -347.899 238.013L-347.4 238.027C-347.381 237.365 -347.359 236.704 -347.334 236.043L-347.834 236.025C-347.81 235.363 -347.782 234.701 -347.752 234.041L-347.253 234.063C-347.223 233.403 -347.19 232.743 -347.155 232.084L-347.654 232.058C-347.619 231.391 -347.58 230.726 -347.539 230.061L-347.04 230.092C-346.999 229.429 -346.955 228.766 -346.909 228.104L-347.408 228.069C-347.361 227.406 -347.312 226.743 -347.26 226.081L-346.761 226.12C-346.709 225.46 -346.655 224.8 -346.598 224.141L-347.096 224.098C-347.038 223.437 -346.978 222.778 -346.916 222.119L-346.418 222.166C-346.355 221.509 -346.29 220.852 -346.222 220.196L-346.719 220.144C-346.65 219.482 -346.579 218.82 -346.505 218.158L-346.008 218.214C-345.934 217.553 -345.857 216.894 -345.778 216.235L-346.274 216.175C-346.195 215.515 -346.112 214.855 -346.027 214.197L-345.531 214.26C-345.447 213.603 -345.359 212.947 -345.269 212.291L-345.764 212.223C-345.674 211.566 -345.581 210.91 -345.485 210.254L-344.991 210.327C-344.895 209.673 -344.797 209.019 -344.696 208.367L-345.19 208.291C-345.089 207.633 -344.984 206.977 -344.877 206.321L-344.384 206.402C-344.277 205.746 -344.167 205.091 -344.055 204.437L-344.548 204.352C-344.435 203.697 -344.32 203.042 -344.202 202.388L-343.71 202.477C-343.592 201.825 -343.472 201.173 -343.349 200.523L-343.84 200.43C-343.717 199.778 -343.591 199.127 -343.463 198.477L-342.972 198.574C-342.844 197.925 -342.713 197.277 -342.579 196.63L-343.069 196.529C-342.935 195.879 -342.798 195.229 -342.658 194.58L-342.169 194.685C-342.03 194.036 -341.887 193.387 -341.742 192.74L-342.23 192.63C-342.085 191.982 -341.937 191.334 -341.786 190.687L-341.299 190.8C-341.149 190.154 -340.996 189.51 -340.84 188.866L-341.326 188.748C-341.17 188.103 -341.012 187.459 -340.851 186.816L-340.366 186.938C-340.205 186.296 -340.042 185.655 -339.876 185.015L-340.36 184.89C-340.193 184.247 -340.024 183.606 -339.852 182.965L-339.369 183.095C-339.197 182.453 -339.022 181.813 -338.844 181.173L-339.326 181.04C-339.148 180.399 -338.968 179.759 -338.785 179.121L-338.305 179.258C-338.122 178.621 -337.937 177.985 -337.749 177.35L-338.229 177.208C-338.04 176.571 -337.85 175.936 -337.656 175.302L-337.178 175.447C-336.985 174.814 -336.79 174.182 -336.592 173.551L-337.069 173.402C-336.87 172.768 -336.669 172.136 -336.465 171.505L-335.989 171.659C-335.785 171.027 -335.579 170.396 -335.369 169.767L-335.844 169.609C-335.634 168.978 -335.422 168.349 -335.207 167.72L-334.734 167.882C-334.52 167.254 -334.303 166.628 -334.084 166.003L-334.555 165.838C-334.336 165.211 -334.113 164.586 -333.888 163.962L-333.418 164.131C-333.193 163.509 -332.967 162.887 -332.737 162.267L-333.206 162.093C-332.976 161.471 -332.743 160.85 -332.508 160.229L-332.04 160.407C-331.805 159.786 -331.567 159.167 -331.327 158.549L-331.793 158.368C-331.552 157.748 -331.308 157.13 -331.062 156.513L-330.598 156.698C-330.353 156.082 -330.105 155.468 -329.854 154.854L-330.317 154.665C-330.066 154.051 -329.813 153.437 -329.557 152.825L-329.096 153.018C-328.84 152.407 -328.583 151.797 -328.322 151.189L-328.782 150.992C-328.521 150.382 -328.258 149.773 -327.992 149.166L-327.534 149.366C-327.268 148.758 -326.999 148.152 -326.728 147.546L-327.185 147.342C-326.913 146.736 -326.64 146.13 -326.363 145.526L-325.909 145.734C-325.633 145.132 -325.355 144.53 -325.074 143.93L-325.527 143.718C-325.246 143.117 -324.962 142.517 -324.676 141.918L-324.225 142.134C-323.939 141.536 -323.652 140.94 -323.361 140.345L-323.811 140.126C-323.52 139.529 -323.226 138.934 -322.93 138.34L-322.483 138.563C-322.187 137.97 -321.889 137.377 -321.588 136.786L-322.034 136.56C-321.733 135.967 -321.429 135.377 -321.124 134.787L-320.68 135.017C-320.374 134.429 -320.067 133.842 -319.757 133.257L-320.199 133.023C-319.888 132.436 -319.575 131.851 -319.26 131.267L-318.82 131.504C-318.505 130.922 -318.188 130.34 -317.868 129.76L-318.306 129.519C-317.986 128.938 -317.664 128.357 -317.339 127.779L-316.903 128.024C-316.578 127.446 -316.251 126.869 -315.922 126.293L-316.356 126.045C-316.026 125.469 -315.694 124.894 -315.359 124.32L-314.927 124.572C-314.593 123.999 -314.257 123.428 -313.919 122.859L-314.348 122.603C-314.009 122.033 -313.668 121.463 -313.324 120.896L-312.896 121.155C-312.553 120.588 -312.208 120.023 -311.86 119.459L-312.286 119.197C-311.937 118.632 -311.587 118.068 -311.234 117.506L-310.81 117.772C-310.458 117.21 -310.103 116.651 -309.746 116.092L-310.167 115.823C-309.809 115.263 -309.449 114.705 -309.087 114.149L-308.668 114.422C-308.306 113.866 -307.942 113.313 -307.576 112.76L-307.993 112.484C-307.626 111.931 -307.257 111.379 -306.886 110.828L-306.472 111.108C-306.101 110.559 -305.729 110.011 -305.354 109.465L-305.766 109.182C-305.39 108.634 -305.012 108.089 -304.632 107.544L-304.222 107.831C-303.843 107.287 -303.461 106.746 -303.077 106.205L-303.485 105.916C-303.1 105.374 -302.714 104.835 -302.325 104.297L-301.919 104.59C-301.531 104.053 -301.141 103.517 -300.748 102.983L-301.151 102.687C-300.758 102.152 -300.363 101.619 -299.965 101.087L-299.565 101.386C-299.168 100.856 -298.769 100.327 -298.368 99.7994L-298.766 99.4968C-298.364 98.9683 -297.96 98.4415 -297.554 97.9162L-297.158 98.2221C-296.753 97.698 -296.345 97.1754 -295.936 96.6546L-296.329 96.3455C-295.919 95.8236 -295.506 95.3033 -295.092 94.7847L-294.701 95.0969C-294.287 94.5794 -293.871 94.0635 -293.454 93.5492L-293.842 93.2339C-293.423 92.7186 -293.002 92.205 -292.579 91.6931L-292.194 92.0116C-291.772 91.5007 -291.347 90.9915 -290.921 90.484L-291.304 90.1625C-290.877 89.654 -290.448 89.1473 -290.017 88.6423L-289.637 88.9669C-289.207 88.463 -288.775 87.9609 -288.34 87.4604L-288.718 87.1328C-288.283 86.6313 -287.846 86.1316 -287.407 85.6336L-287.032 85.9643C-286.594 85.4673 -286.154 84.972 -285.711 84.4785L-286.084 84.1448C-285.641 83.6503 -285.196 83.1576 -284.748 82.6665L-284.379 83.0032C-283.933 82.5132 -283.484 82.0249 -283.034 81.5384L-283.401 81.1988C-282.95 80.7115 -282.497 80.2259 -282.042 79.7421L-281.678 80.0847C-281.224 79.6021 -280.769 79.1214 -280.311 78.6424L-280.673 78.297C-280.214 77.8171 -279.754 77.339 -279.291 76.8626L-278.932 77.2109C-278.471 76.7355 -278.007 76.262 -277.542 75.7902L-277.898 75.4391C-277.432 74.9664 -276.963 74.4955 -276.493 74.0264L-276.14 74.3804C-275.671 73.9122 -275.2 73.4459 -274.727 72.9814L-275.077 72.6247C-274.603 72.1595 -274.128 71.6962 -273.65 71.2347L-273.303 71.5942C-272.826 71.134 -272.348 70.6757 -271.868 70.2192L-272.213 69.8569C-271.732 69.3995 -271.249 68.9439 -270.765 68.4903L-270.423 68.8553C-269.939 68.4025 -269.454 67.9516 -268.966 67.5026L-269.305 67.1349C-268.817 66.6849 -268.327 66.2369 -267.835 65.7907L-267.499 66.1611C-267.008 65.7159 -266.515 65.2725 -266.02 64.831L-266.353 64.458C-265.857 64.0159 -265.36 63.5758 -264.861 63.1375L-264.531 63.5132C-264.034 63.0763 -263.535 62.6413 -263.033 62.2083L-263.36 61.83C-262.858 61.396 -262.354 60.964 -261.849 60.5339L-261.525 60.9148C-261.02 60.4856 -260.514 60.0583 -260.006 59.6329L-260.326 59.2495C-259.817 58.8233 -259.306 58.3991 -258.793 57.9768L-258.476 58.3627C-257.964 57.9413 -257.45 57.5218 -256.935 57.1042L-257.25 56.7158C-256.734 56.2977 -256.216 55.8817 -255.697 55.4676L-255.385 55.8585C-254.868 55.4458 -254.349 55.0351 -253.828 54.6263L-254.136 54.233C-253.614 53.8234 -253.09 53.4158 -252.565 53.0102L-252.259 53.406C-251.735 53.0012 -251.209 52.5985 -250.681 52.1977L-250.983 51.7995C-250.454 51.3979 -249.924 50.9983 -249.392 50.6007L-249.092 51.0013C-248.561 50.6046 -248.028 50.2098 -247.494 49.8171L-247.79 49.4141C-247.255 49.021 -246.718 48.6299 -246.18 48.2408L-245.887 48.6461C-245.35 48.2584 -244.812 47.8728 -244.273 47.4892L-244.562 47.0817C-244.021 46.6973 -243.479 46.315 -242.935 45.9348L-242.648 46.3446C-242.106 45.9651 -241.561 45.5877 -241.015 45.2123L-241.298 44.8002C-240.751 44.4241 -240.202 44.05 -239.651 43.678L-239.371 44.0923C-238.822 43.7211 -238.271 43.3519 -237.718 42.9848L-237.995 42.5684C-237.442 42.2009 -236.887 41.8356 -236.331 41.4723L-236.058 41.891C-235.504 41.5292 -234.948 41.1695 -234.391 40.8119L-234.661 40.3911C-234.103 40.0328 -233.543 39.6765 -232.981 39.3224L-232.715 39.7453C-232.154 39.3919 -231.593 39.0406 -231.029 38.6914L-231.293 38.2664C-230.728 37.9166 -230.162 37.5688 -229.595 37.2232L-229.335 37.6502C-228.768 37.3053 -228.2 36.9625 -227.631 36.6219L-227.888 36.1928C-227.318 35.8518 -226.746 35.513 -226.174 35.1763L-225.92 35.6074C-225.35 35.2722 -224.778 34.9391 -224.205 34.6082L-224.455 34.1752C-223.88 33.8436 -223.304 33.5143 -222.727 33.187L-222.48 33.622C-221.904 33.2954 -221.326 32.971 -220.747 32.6488L-220.99 32.2119C-220.41 31.889 -219.828 31.5683 -219.245 31.2498L-219.006 31.6886C-218.424 31.3707 -217.84 31.055 -217.255 30.7415L-217.491 30.3008C-216.906 29.987 -216.319 29.6754 -215.731 29.3659L-215.498 29.8085C-214.913 29.5006 -214.326 29.1949 -213.738 28.8915L-213.967 28.4471C-213.378 28.1431 -212.787 27.8412 -212.195 27.5416L-211.969 27.9877C-211.378 27.6886 -210.786 27.3918 -210.192 27.0972L-210.415 26.6493C-209.82 26.3541 -209.224 26.0611 -208.626 25.7704L-208.407 26.22C-207.811 25.9299 -207.213 25.642 -206.614 25.3563L-206.829 24.905C-206.229 24.6189 -205.628 24.3351 -205.026 24.0536L-204.814 24.5065C-204.215 24.2267 -203.615 23.949 -203.013 23.6736L-203.221 23.219C-202.618 22.943 -202.014 22.6693 -201.409 22.3979L-201.204 22.8542C-200.6 22.5833 -199.995 22.3146 -199.388 22.0483L-199.589 21.5904C-198.981 21.3236 -198.371 21.059 -197.761 20.7966L-197.564 21.256C-196.954 20.9942 -196.344 20.7347 -195.732 20.4775L-195.925 20.0166C-195.312 19.7588 -194.698 19.5034 -194.082 19.2503L-193.892 19.7127C-193.281 19.4614 -192.669 19.2123 -192.055 18.9656L-192.241 18.5017C-191.626 18.2544 -191.01 18.0095 -190.393 17.7668L-190.21 18.2322C-189.594 17.99 -188.977 17.7502 -188.358 17.5126L-188.537 17.0459C-187.917 16.8079 -187.296 16.5722 -186.674 16.3388L-186.499 16.807C-185.878 16.5741 -185.256 16.3435 -184.632 16.1153L-184.804 15.6457C-184.18 15.4171 -183.554 15.1907 -182.927 14.9667L-182.759 15.4376C-182.136 15.2151 -181.512 14.995 -180.887 14.7772L-181.052 14.305C-180.426 14.087 -179.8 13.8713 -179.172 13.6579L-179.011 14.1313C-178.384 13.9184 -177.756 13.7078 -177.127 13.4996L-177.285 13.0249C-176.654 12.8163 -176.023 12.61 -175.391 12.4061L-175.237 12.8819C-174.606 12.6784 -173.974 12.4773 -173.341 12.2785L-173.49 11.8014C-172.856 11.6022 -172.22 11.4055 -171.583 11.2111L-171.437 11.6893C-170.804 11.4961 -170.171 11.3052 -169.536 11.1168L-169.678 10.6375C-169.043 10.449 -168.407 10.263 -167.77 10.0793L-167.632 10.5598C-166.996 10.3765 -166.359 10.1956 -165.721 10.017L-165.856 9.53553C-165.217 9.35665 -164.577 9.18016 -163.936 9.00607L-163.805 9.4886C-163.165 9.31485 -162.524 9.1435 -161.882 8.97456L-162.009 8.49103C-161.366 8.32176 -160.722 8.1549 -160.077 7.99047L-159.953 8.47498C-159.311 8.31138 -158.668 8.15018 -158.024 7.9914L-158.144 7.50594C-157.501 7.34749 -156.858 7.19145 -156.213 7.03781L-156.097 7.52418C-155.454 7.37085 -154.81 7.21992 -154.165 7.07141L-154.277 6.58415C-153.63 6.43534 -152.983 6.28896 -152.334 6.14501L-152.226 6.63313C-151.579 6.48946 -150.931 6.34821 -150.282 6.2094L-150.386 5.72046C-149.736 5.58139 -149.085 5.44475 -148.433 5.31056L-148.332 5.80031C-147.682 5.66655 -147.031 5.53524 -146.379 5.40638L-146.476 4.91587C-145.827 4.78763 -145.177 4.6618 -144.527 4.53842L-144.434 5.02966C-143.784 4.90651 -143.134 4.78579 -142.483 4.66751L-142.572 4.17556C-141.92 4.05705 -141.267 3.94098 -140.612 3.82737L-140.527 4.31999C-139.874 4.2066 -139.22 4.09566 -138.566 3.98717L-138.647 3.4939C-137.991 3.3852 -137.335 3.27897 -136.677 3.17522L-136.599 3.66911C-135.943 3.56555 -135.286 3.46446 -134.628 3.36586L-134.702 2.87138C-134.047 2.77331 -133.392 2.67769 -132.736 2.58452L-132.666 3.07956C-132.012 2.98671 -131.357 2.89631 -130.702 2.80836L-130.768 2.3128C-130.111 2.22469 -129.454 2.13903 -128.795 2.05585L-128.733 2.5519C-128.076 2.46888 -127.418 2.38832 -126.759 2.31023L-126.818 1.81371C-126.158 1.73548 -125.497 1.65972 -124.836 1.58646L-124.781 2.08342C-124.12 2.0103 -123.459 1.93966 -122.798 1.87152L-122.849 1.37415C-122.189 1.30618 -121.528 1.24069 -120.866 1.17768L-120.819 1.67543C-120.162 1.61288 -119.504 1.55279 -118.846 1.49516L-118.89 0.997068C-118.23 0.939331 -117.57 0.884065 -116.909 0.831279L-116.869 1.32969C-116.209 1.27701 -115.549 1.2268 -114.887 1.17908L-114.923 0.680373C-114.261 0.632558 -113.598 0.587233 -112.934 0.544407L-112.902 1.04337C-112.239 1.00063 -111.576 0.960378 -110.912 0.922634L-110.94 0.42344C-110.275 0.385628 -109.609 0.350325 -108.942 0.31754L-108.918 0.816937C-108.26 0.784561 -107.601 0.754646 -106.941 0.7272L-106.962 0.227632C-106.301 0.200134 -105.64 0.17511 -104.977 0.15257L-104.96 0.652281C-104.3 0.629783 -103.638 0.609765 -102.976 0.592234L-102.989 0.0924092C-102.326 0.0748454 -101.662 0.0597744 -100.997 0.0472056L-100.987 0.547116C-100.324 0.534571 -99.66 0.524524 -98.9953 0.516983L-99.0009 0.0170149C-98.335 0.00945971 -97.6684 0.00441593 -97.0012 0.00189287L-96.9993 0.501889C-96.6664 0.50063 -96.3333 0.5 -96 0.5C-95.667 0.5 -95.3342 0.500629 -95.0014 0.501886L-94.9996 0.00188985C-94.3324 0.00441086 -93.6658 0.00945257 -92.9999 0.0170057L-93.0055 0.516974C-92.3408 0.524512 -91.6768 0.534558 -91.0133 0.547101L-91.0039 0.0471904C-90.3392 0.0597573 -89.6751 0.0748264 -89.0117 0.0923884L-89.0249 0.592213C-88.3627 0.609742 -87.7012 0.629759 -87.0403 0.652254L-87.0233 0.152544C-86.3611 0.175082 -85.6996 0.200104 -85.0388 0.2276L-85.0596 0.727169C-84.4 0.754612 -83.7411 0.784526 -83.0829 0.816899L-83.0583 0.317502C-82.3918 0.350285 -81.7259 0.385587 -81.0607 0.423396L-81.0891 0.922591C-80.425 0.960333 -79.7617 1.00058 -79.0991 1.04332L-79.0669 0.544359C-78.403 0.587182 -77.7398 0.632506 -77.0774 0.680319L-77.1133 1.17902C-76.4521 1.22674 -75.7917 1.27695 -75.1319 1.32963L-75.0921 0.831219C-74.4311 0.884003 -73.7708 0.939268 -73.1112 0.997003L-73.1548 1.4951C-72.4965 1.55272 -71.8389 1.61281 -71.182 1.67536L-71.1346 1.17761C-70.473 1.24061 -69.8121 1.3061 -69.152 1.37407L-69.2032 1.87144C-68.5414 1.93958 -67.8804 2.01022 -67.2202 2.08334L-67.1651 1.58638C-66.5036 1.65964 -65.8428 1.73539 -65.1829 1.81363L-65.2418 2.31015C-64.5831 2.38823 -63.9252 2.46879 -63.2681 2.55181L-63.2054 2.05576C-62.547 2.13894 -61.8894 2.22459 -61.2327 2.31271L-61.2992 2.80827C-60.6437 2.89621 -59.989 2.98661 -59.3351 3.07946L-59.2648 2.58443C-58.6087 2.67759 -57.9535 2.77321 -57.299 2.87127L-57.3731 3.36575C-56.7151 3.46436 -56.0579 3.56544 -55.4016 3.669L-55.3236 3.17511C-54.666 3.27886 -54.0092 3.38509 -53.3534 3.49379L-53.4351 3.98706C-52.7805 4.09554 -52.1267 4.20649 -51.4738 4.31988L-51.3883 3.82725C-50.7341 3.94087 -50.0808 4.05693 -49.4284 4.17544L-49.5178 4.66739C-48.8667 4.78567 -48.2164 4.90639 -47.5671 5.02954L-47.4739 4.53829C-46.8233 4.66168 -46.1736 4.7875 -45.5247 4.91575L-45.6217 5.40626C-44.9698 5.53512 -44.3188 5.66642 -43.6687 5.80017L-43.568 5.31043C-42.9158 5.44462 -42.2646 5.58125 -41.6143 5.72033L-41.7188 6.20927C-41.0698 6.34808 -40.4217 6.48932 -39.7746 6.63299L-39.6662 6.14487C-39.0178 6.28882 -38.3704 6.4352 -37.7239 6.58401L-37.836 7.07127C-37.1908 7.21978 -36.5465 7.37071 -35.9032 7.52404L-35.7873 7.03767C-35.1427 7.1913 -34.4992 7.34735 -33.8566 7.5058L-33.9763 7.99125C-33.3323 8.15004 -32.6894 8.31123 -32.0474 8.47483L-31.9239 7.99032C-31.2787 8.15475 -30.6345 8.32161 -29.9913 8.49088L-30.1186 8.97441C-29.4766 9.14335 -28.8357 9.3147 -28.1958 9.48845L-28.0648 9.00592C-27.4237 9.18 -26.7836 9.35649 -26.1445 9.53537L-26.2793 10.0169C-25.6415 10.1954 -25.0047 10.3763 -24.369 10.5596L-24.2305 10.0792C-23.5935 10.2628 -22.9576 10.4489 -22.3227 10.6373L-22.465 11.1166C-21.83 11.3051 -21.1961 11.4959 -20.5632 11.6891L-20.4172 11.2109C-19.7805 11.4053 -19.1447 11.6021 -18.5101 11.8013L-18.6599 12.2783C-18.0265 12.4771 -17.3943 12.6782 -16.7631 12.8818L-16.6097 12.4059C-15.9773 12.6098 -15.346 12.8161 -14.7159 13.0247L-14.873 13.4994C-14.2441 13.7076 -13.6163 13.9182 -12.9897 14.1312L-12.8288 13.6578C-12.2009 13.8711 -11.5741 14.0868 -10.9485 14.3049L-11.1131 14.777C-10.4881 14.9948 -9.86435 15.2149 -9.2417 15.4374L-9.07349 14.9666C-8.44659 15.1906 -7.82083 15.4169 -7.19629 15.6456L-7.36823 16.1151C-6.7449 16.3433 -6.12274 16.5739 -5.5018 16.8068L-5.3262 16.3386C-4.70401 16.572 -4.08301 16.8077 -3.46323 17.0457L-3.64249 17.5125C-3.02393 17.75 -2.40656 17.9899 -1.79041 18.232L-1.60751 17.7667C-0.990143 18.0093 -0.373993 18.2543 0.240936 18.5015L0.0544128 18.9654C0.668121 19.2122 1.28064 19.4612 1.89188 19.7126L2.08203 19.2501C2.6976 19.5032 3.31195 19.7587 3.92502 20.0164L3.73123 20.4773C4.34314 20.7345 4.95377 20.9941 5.56311 21.2559L5.7605 20.7965C6.37103 21.0588 6.98032 21.3234 7.58832 21.5903L7.38733 22.0481C7.99414 22.3145 8.59964 22.5831 9.20386 22.854L9.40842 22.3977C10.0138 22.6692 10.618 22.9429 11.2208 23.2188L11.0127 23.6734C11.6143 23.9488 12.2146 24.2265 12.8136 24.5064L13.0253 24.0534C13.6278 24.3349 14.2291 24.6188 14.8289 24.9048L14.6137 25.3561C15.2128 25.6418 15.8105 25.9297 16.4069 26.2199L16.6256 25.7702C17.2231 26.061 17.8193 26.3539 18.4142 26.6491L18.1919 27.097C18.7856 27.3916 19.3778 27.6885 19.9688 27.9875L20.1945 27.5414C20.7866 27.841 21.3773 28.1429 21.9666 28.447L21.7373 28.8913C22.3255 29.1948 22.9122 29.5004 23.4976 29.8083L23.7303 29.3658C24.3187 29.6752 24.9056 29.9868 25.4911 30.3007L25.2549 30.7414C25.8398 31.0549 26.4232 31.3706 27.0052 31.6884L27.2449 31.2496C27.8281 31.5681 28.4098 31.8888 28.9901 32.2117L28.747 32.6486C29.3261 32.9709 29.9038 33.2953 30.4801 33.6219L30.7266 33.1869C31.304 33.5141 31.8799 33.8435 32.4543 34.175L32.2044 34.6081C32.7777 34.939 33.3496 35.272 33.92 35.6072L34.1733 35.1761C34.7462 35.5128 35.3176 35.8516 35.8875 36.1926L35.6308 36.6217C36.2002 36.9623 36.768 37.3051 37.3344 37.6501L37.5945 37.223C38.162 37.5686 38.7279 37.9164 39.2924 38.2662L39.0289 38.6912C39.5923 39.0404 40.154 39.3917 40.7143 39.7451L40.981 39.3222C41.5424 39.6763 42.1022 40.0326 42.6605 40.3909L42.3904 40.8117C42.9476 41.1693 43.5032 41.529 44.0573 41.8908L44.3306 41.4721C44.8869 41.8354 45.4416 42.2007 45.9947 42.5682L45.718 42.9846C46.2706 43.3517 46.8216 43.7209 47.371 44.0921L47.6509 43.6778C48.2014 44.0498 48.7503 44.4239 49.2976 44.8L49.0144 45.2121C49.5606 45.5875 50.1052 45.9649 50.6482 46.3444L50.9346 45.9346C51.4787 46.3148 52.0211 46.6971 52.5619 47.0815L52.2722 47.489C52.812 47.8726 53.3501 48.2582 53.8865 48.6459L54.1794 48.2406C54.7178 48.6297 55.2545 49.0208 55.7896 49.4139L55.4935 49.8169C56.0281 50.2096 56.5609 50.6043 57.0921 51.0011L57.3913 50.6005C57.9236 50.9981 58.4541 51.3976 58.983 51.7992L58.6806 52.1974C59.2085 52.5982 59.7346 53.001 60.2591 53.4058L60.5646 53.01C61.0901 53.4156 61.6138 53.8232 62.1359 54.2327L61.8272 54.6261C62.3483 55.0349 62.8676 55.4456 63.3852 55.8583L63.6969 55.4674C64.2162 55.8815 64.7338 56.2975 65.2496 56.7155L64.9348 57.104C65.45 57.5215 65.9636 57.941 66.4753 58.3625L66.7932 57.9765C67.3059 58.3988 67.8169 58.8231 68.3261 59.2493L68.0052 59.6327C68.5134 60.0581 69.0199 60.4854 69.5245 60.9146L69.8485 60.5337C70.3542 60.9638 70.858 61.3958 71.3601 61.8297L71.0332 62.208C71.5343 62.6411 72.0336 63.0761 72.5311 63.513L72.861 63.1373C73.36 63.5755 73.8572 64.0157 74.3526 64.4577L74.0197 64.8308C74.5144 65.2723 75.0074 65.7156 75.4984 66.1609L75.8343 65.7905C76.3264 66.2366 76.8165 66.6847 77.3049 67.1346L76.9661 67.5023C77.4535 67.9514 77.9391 68.4023 78.4227 68.855L78.7644 68.49C79.2491 68.9437 79.7319 69.3992 80.2128 69.8567L79.8682 70.2189C80.3481 70.6754 80.8262 71.1338 81.3024 71.5939L81.6499 71.2344C82.1274 71.6959 82.6031 72.1592 83.0768 72.6244L82.7265 72.9812C83.1995 73.4457 83.6707 73.912 84.1399 74.3801L84.493 74.0261C84.9632 74.4952 85.4315 74.9661 85.8978 75.4388L85.5418 75.79C86.0072 76.2617 86.4706 76.7353 86.9322 77.2107L87.2909 76.8624C87.7533 77.3387 88.2138 77.8168 88.6724 78.2968L88.3109 78.6422C88.7685 79.1211 89.2242 79.6019 89.6779 80.0844L90.0421 79.7419C90.497 80.2257 90.95 80.7112 91.4009 81.1985L91.0339 81.5381C91.4841 82.0246 91.9323 82.5129 92.3785 83.0029L92.7482 82.6663C93.1953 83.1573 93.6404 83.6501 94.0835 84.1446L93.7111 84.4782C94.1533 84.9718 94.5935 85.467 95.0317 85.964L95.4067 85.6333C95.8458 86.1313 96.2829 86.6311 96.7179 87.1325L96.3402 87.4601C96.7744 87.9606 97.2065 88.4627 97.6365 88.9666L98.0168 88.642C98.4479 89.147 98.877 89.6538 99.3039 90.1622L98.921 90.4837C99.3472 90.9912 99.7713 91.5004 100.193 92.0113L100.579 91.6929C101.002 92.2048 101.423 92.7184 101.841 93.2336L101.453 93.549C101.871 94.0632 102.287 94.5791 102.701 95.0966L103.091 94.7844C103.506 95.303 103.918 95.8233 104.329 96.3452L103.936 96.6543C104.345 97.1752 104.753 97.6977 105.158 98.2218L105.553 97.916C105.96 98.4412 106.364 98.968 106.766 99.4965L106.368 99.7991C106.769 100.327 107.168 100.856 107.564 101.386L107.965 101.087C108.362 101.618 108.758 102.152 109.151 102.687L108.748 102.983C109.141 103.517 109.531 104.052 109.919 104.589L110.324 104.296C110.713 104.834 111.1 105.374 111.485 105.915L111.077 106.205C111.461 106.745 111.843 107.287 112.222 107.83L112.632 107.544C113.012 108.088 113.39 108.634 113.766 109.182L113.354 109.464C113.728 110.011 114.101 110.558 114.472 111.108L114.886 110.828C115.257 111.378 115.626 111.93 115.993 112.484L115.576 112.76C115.942 113.312 116.306 113.866 116.668 114.421L117.087 114.149C117.449 114.705 117.809 115.263 118.167 115.823L117.745 116.092C118.103 116.65 118.457 117.21 118.81 117.772L119.233 117.506C119.586 118.068 119.937 118.631 120.285 119.196L119.86 119.459C120.208 120.022 120.553 120.588 120.896 121.154L121.324 120.895C121.667 121.463 122.009 122.032 122.348 122.603L121.918 122.859C122.257 123.428 122.593 123.999 122.927 124.572L123.359 124.32C123.693 124.893 124.026 125.468 124.356 126.045L123.922 126.293C124.251 126.868 124.578 127.445 124.903 128.023L125.339 127.779C125.663 128.357 125.986 128.937 126.306 129.519L125.868 129.76C126.188 130.34 126.505 130.921 126.819 131.504L127.259 131.266C127.575 131.85 127.888 132.436 128.198 133.022L127.757 133.256C128.067 133.842 128.374 134.429 128.68 135.017L129.123 134.787C129.429 135.376 129.733 135.967 130.034 136.559L129.588 136.786C129.889 137.377 130.187 137.969 130.483 138.563L130.93 138.34C131.226 138.934 131.519 139.529 131.81 140.125L131.361 140.345C131.651 140.939 131.939 141.536 132.225 142.133L132.676 141.918C132.962 142.517 133.246 143.117 133.527 143.718L133.074 143.93C133.354 144.53 133.633 145.131 133.908 145.734L134.363 145.526C134.639 146.13 134.913 146.735 135.185 147.342L134.728 147.546C134.999 148.151 135.268 148.758 135.534 149.366L135.992 149.165C136.258 149.773 136.521 150.382 136.782 150.992L136.322 151.189C136.583 151.797 136.84 152.407 137.096 153.018L137.557 152.825C137.813 153.437 138.066 154.05 138.317 154.665L137.854 154.854C138.105 155.467 138.352 156.082 138.598 156.697L139.062 156.512C139.308 157.129 139.552 157.748 139.793 158.367L139.327 158.548C139.567 159.167 139.805 159.786 140.04 160.406L140.508 160.229C140.743 160.849 140.976 161.47 141.206 162.093L140.737 162.266C140.966 162.887 141.193 163.508 141.418 164.131L141.888 163.962C142.113 164.586 142.335 165.211 142.555 165.837L142.083 166.003C142.303 166.628 142.52 167.254 142.734 167.881L143.207 167.72C143.422 168.348 143.634 168.978 143.844 169.609L143.369 169.766C143.578 170.396 143.785 171.027 143.989 171.658L144.465 171.505C144.669 172.136 144.87 172.768 145.069 173.401L144.592 173.551C144.79 174.182 144.985 174.814 145.178 175.447L145.656 175.301C145.85 175.936 146.04 176.571 146.228 177.207L145.749 177.349C145.937 177.984 146.122 178.621 146.304 179.258L146.785 179.12C146.968 179.759 147.148 180.398 147.326 181.039L146.844 181.173C147.022 181.812 147.196 182.453 147.369 183.094L147.852 182.964C148.023 183.605 148.193 184.247 148.36 184.889L147.876 185.015C148.042 185.655 148.205 186.295 148.366 186.937L148.851 186.816C149.012 187.459 149.17 188.103 149.326 188.748L148.84 188.865C148.996 189.509 149.149 190.154 149.299 190.799L149.786 190.686C149.937 191.333 150.085 191.981 150.23 192.63L149.742 192.739C149.887 193.387 150.029 194.035 150.169 194.685L150.658 194.58C150.798 195.228 150.935 195.878 151.069 196.529L150.579 196.63C150.713 197.277 150.844 197.924 150.972 198.573L151.462 198.476C151.591 199.126 151.717 199.777 151.84 200.429L151.349 200.522C151.472 201.173 151.592 201.824 151.71 202.476L152.202 202.388C152.32 203.041 152.435 203.696 152.548 204.352L152.055 204.436C152.167 205.09 152.277 205.745 152.384 206.401L152.877 206.321C152.984 206.976 153.089 207.633 153.19 208.29L152.696 208.366C152.797 209.019 152.895 209.672 152.99 210.326L153.485 210.254C153.581 210.909 153.674 211.565 153.764 212.222L153.269 212.29C153.359 212.946 153.447 213.603 153.531 214.26L154.027 214.196C154.112 214.855 154.195 215.514 154.274 216.174L153.778 216.234C153.857 216.893 153.934 217.553 154.008 218.213L154.505 218.158C154.579 218.819 154.65 219.481 154.719 220.144L154.222 220.195C154.29 220.851 154.355 221.508 154.418 222.166L154.915 222.118C154.978 222.777 155.038 223.437 155.096 224.097L154.598 224.14C154.655 224.799 154.709 225.459 154.761 226.12L155.26 226.08C155.312 226.742 155.361 227.405 155.408 228.068L154.909 228.103C154.955 228.765 154.999 229.428 155.04 230.091L155.539 230.06C155.58 230.725 155.619 231.391 155.654 232.057L155.155 232.084C155.19 232.743 155.223 233.402 155.253 234.063L155.752 234.04C155.782 234.701 155.81 235.362 155.834 236.024L155.334 236.042C155.359 236.703 155.381 237.364 155.4 238.026L155.899 238.012C155.919 238.675 155.935 239.339 155.949 240.004L155.449 240.014C155.462 240.677 155.473 241.341 155.482 242.005L155.981 241.999Z" stroke="#979797" stroke-dasharray="2 2"/>
</svg>
