<svg width="20" height="20" viewBox="0 0 20 20" fill="none" xmlns="http://www.w3.org/2000/svg">
<g clip-path="url(#clip0_1_1868)">
<path fill-rule="evenodd" clip-rule="evenodd" d="M5.87003 0.122867C4.24203 0.195867 2.83003 0.593867 1.69103 1.72887C0.548027 2.86887 0.155027 4.28587 0.0810274 5.89687C0.0360274 6.90187 -0.231973 14.4979 0.544027 16.4899C0.797879 17.151 1.18823 17.7513 1.68964 18.2515C2.19104 18.7517 2.79224 19.1406 3.45403 19.3929C4.08803 19.6389 4.81003 19.8049 5.87003 19.8539C14.73 20.2549 18.015 20.0369 19.4 16.4899C19.646 15.8589 19.815 15.1369 19.862 14.0799C20.267 5.19687 19.796 3.27087 18.252 1.72887C17.027 0.506867 15.586 -0.325133 5.87003 0.122867ZM5.95103 18.0669C4.98103 18.0239 4.45503 17.8619 4.10303 17.7259C3.67323 17.5631 3.28277 17.3111 2.95736 16.9866C2.63195 16.662 2.37895 16.2722 2.21503 15.8429C1.62403 14.3289 1.82003 7.13987 1.87303 5.97687C1.92403 4.83687 2.15503 3.79687 2.95903 2.99187C3.95403 1.99987 5.23903 1.51287 13.993 1.90787C15.135 1.95987 16.179 2.18987 16.985 2.99187C17.98 3.98487 18.474 5.27987 18.072 13.9999C18.028 14.9679 17.866 15.4929 17.73 15.8429C16.829 18.1509 14.757 18.4709 5.95103 18.0669ZM14.09 4.68987C14.09 5.34687 14.624 5.87987 15.284 5.87987C15.944 5.87987 16.479 5.34687 16.479 4.68987C16.479 4.37293 16.3531 4.06898 16.129 3.84487C15.9049 3.62077 15.601 3.49487 15.284 3.49487C14.9671 3.49487 14.6631 3.62077 14.439 3.84487C14.2149 4.06898 14.089 4.37293 14.089 4.68987M4.86303 9.98787C4.86381 10.6581 4.99662 11.3216 5.25386 11.9405C5.5111 12.5594 5.88774 13.1215 6.36226 13.5948C6.83678 14.0681 7.39989 14.4433 8.01943 14.699C8.63897 14.9547 9.30281 15.0858 9.97303 15.0849C10.6432 15.0857 11.3069 14.9544 11.9263 14.6987C12.5457 14.443 13.1087 14.0678 13.5832 13.5945C14.0576 13.1212 14.4341 12.5591 14.6913 11.9402C14.9485 11.3214 15.0812 10.658 15.082 9.98787C15.0812 9.31769 14.9484 8.65424 14.6912 8.03541C14.4339 7.41658 14.0573 6.85449 13.5827 6.38126C13.1082 5.90802 12.5451 5.53292 11.9255 5.27736C11.306 5.02181 10.6422 4.89082 9.97203 4.89187C9.30186 4.89082 8.63804 5.02181 8.01851 5.27736C7.39897 5.53292 6.83585 5.90802 6.36132 6.38126C5.88678 6.85449 5.51013 7.41658 5.25288 8.03541C4.99563 8.65424 4.86381 9.31769 4.86303 9.98787ZM6.65603 9.98787C6.65735 9.10955 7.0074 8.26771 7.62921 7.64739C8.25102 7.02708 9.09371 6.67907 9.97203 6.67987C10.8505 6.67881 11.6935 7.0267 12.3155 7.64704C12.9375 8.26738 13.2877 9.10938 13.289 9.98787C13.2886 10.423 13.2025 10.8538 13.0356 11.2557C12.8687 11.6576 12.6242 12.0226 12.3162 12.33C12.0082 12.6374 11.6426 12.881 11.2404 13.0471C10.8382 13.2132 10.4072 13.2984 9.97203 13.2979C9.53696 13.2983 9.10607 13.213 8.70397 13.0468C8.30187 12.8807 7.93642 12.637 7.6285 12.3296C7.32058 12.0223 7.07622 11.6573 6.90936 11.2555C6.7425 10.8537 6.65642 10.4229 6.65603 9.98787Z" fill="black"/>
</g>
<defs>
<clipPath id="clip0_1_1868">
<rect width="20" height="20" fill="white"/>
</clipPath>
</defs>
</svg>
