<svg width="76" height="76" viewBox="0 0 76 76" fill="none" xmlns="http://www.w3.org/2000/svg">
<path fill-rule="evenodd" clip-rule="evenodd" d="M12.4492 11.5557C15.1073 11.1961 18.3623 11.1331 22.2773 11.1257C22.5099 8.09849 23.8767 5.27073 26.1045 3.20796C28.3322 1.14519 31.2566 -0.000516102 34.2927 1.74407e-07H41.7073C44.7422 0.000346009 47.6651 1.14595 49.892 3.20786C52.1188 5.26977 53.4856 8.09609 53.719 11.122C57.6377 11.1331 60.8927 11.1961 63.5508 11.5557C66.8874 12.0006 69.6976 12.9645 71.9294 15.1926C74.1612 17.4244 75.1177 20.2345 75.57 23.5711C76 26.7854 76 30.8745 76 35.9424V51.1795C76 56.2474 76 60.3366 75.57 63.5508C75.1177 66.8874 74.1612 69.6976 71.9294 71.9294C69.6976 74.1612 66.8874 75.1177 63.5508 75.57C60.3366 76 56.2474 76 51.1795 76H24.8205C19.7526 76 15.6634 76 12.4492 75.57C9.11259 75.1177 6.30244 74.1612 4.07063 71.9294C1.83883 69.6976 0.882341 66.8874 0.433756 63.5508C-5.52433e-08 60.3366 0 56.2474 0 51.1795V35.9424C0 30.8745 -5.52433e-08 26.7854 0.433756 23.5711C0.878634 20.2345 1.84254 17.4244 4.07063 15.1926C6.30244 12.9608 9.11259 12.0043 12.4492 11.5557ZM48.1284 11.122H27.8716C28.0945 9.57789 28.8663 8.16584 30.0455 7.14452C31.2248 6.12321 32.7326 5.56102 34.2927 5.56098H41.7073C43.2674 5.56102 44.7752 6.12321 45.9545 7.14452C47.1337 8.16584 47.9055 9.57789 48.1284 11.122ZM13.1906 70.0572C10.4695 69.6901 9.03102 69.0191 8.0041 67.9959C6.97717 66.969 6.30985 65.5305 5.94283 62.8057C5.56839 60.0066 5.56098 56.2956 5.56098 50.9756V38.482C19.2336 44.2209 27.2191 47.3573 35.6273 47.7502C37.2066 47.8244 38.7934 47.8244 40.3727 47.7502C48.7809 47.3573 56.7664 44.2209 70.439 38.482V50.9756C70.439 56.2956 70.4316 60.0066 70.0572 62.8094C69.6901 65.5305 69.0191 66.969 67.9959 67.9959C66.969 69.0228 65.5305 69.6901 62.8057 70.0572C60.0066 70.4316 56.2956 70.439 50.9756 70.439H25.0244C19.7044 70.439 15.9897 70.4316 13.1906 70.0572ZM70.4316 32.4501C55.1389 38.8823 47.7836 41.8371 40.1132 42.193C38.7044 42.2597 37.2956 42.2597 35.8868 42.193C28.2127 41.8371 20.8611 38.8823 5.56839 32.4501C5.58693 29.0283 5.66107 26.4146 5.94283 24.3126C6.30985 21.5914 6.98088 20.153 8.0041 19.126C9.03102 18.0991 10.4695 17.4318 13.1943 17.0648C15.9897 16.6903 19.7044 16.6829 25.0244 16.6829H50.9756C56.2956 16.6829 60.0066 16.6903 62.8094 17.0648C65.5305 17.4318 66.969 18.1028 67.9959 19.126C69.0228 20.153 69.6901 21.5914 70.0572 24.3163C70.3389 26.4146 70.4131 29.0246 70.4316 32.4501Z" fill="#161F6D"/>
</svg>
