<svg width="31" height="30" viewBox="0 0 31 30" fill="none" xmlns="http://www.w3.org/2000/svg">
<path d="M8.15476 15.222C7.18706 15.222 6.24109 14.9351 5.43647 14.3975C4.63185 13.8598 4.00473 13.0957 3.63441 12.2016C3.26408 11.3076 3.16719 10.3238 3.35598 9.3747C3.54477 8.42559 4.01076 7.55378 4.69503 6.86951C5.3793 6.18524 6.25112 5.71925 7.20022 5.53046C8.14933 5.34167 9.13311 5.43856 10.0272 5.80889C10.9212 6.17921 11.6853 6.80633 12.223 7.61095C12.7606 8.41557 13.0476 9.36154 13.0476 10.3292C13.0447 11.626 12.5283 12.8688 11.6113 13.7858C10.6944 14.7028 9.45153 15.2192 8.15476 15.222ZM8.15476 7.61102C7.61715 7.61102 7.09161 7.77044 6.6446 8.06912C6.19759 8.3678 5.84919 8.79233 5.64345 9.28902C5.43772 9.78571 5.38389 10.3323 5.48877 10.8595C5.59365 11.3868 5.85254 11.8712 6.23269 12.2513C6.61284 12.6315 7.09718 12.8903 7.62446 12.9952C8.15175 13.1001 8.69829 13.0463 9.19498 12.8406C9.69167 12.6348 10.1162 12.2864 10.4149 11.8394C10.7136 11.3924 10.873 10.8669 10.873 10.3292C10.873 9.97228 10.8027 9.61881 10.6661 9.28902C10.5295 8.95923 10.3292 8.65958 10.0768 8.40717C9.82443 8.15476 9.52477 7.95454 9.19498 7.81793C8.86519 7.68133 8.51172 7.61102 8.15476 7.61102ZM20.1149 11.9602C18.9322 11.9602 17.776 11.6094 16.7926 10.9523C15.8092 10.2952 15.0427 9.36129 14.5901 8.26857C14.1374 7.17585 14.019 5.97345 14.2498 4.81343C14.4805 3.65341 15.05 2.58786 15.8864 1.75153C16.7227 0.915199 17.7883 0.345651 18.9483 0.114908C20.1083 -0.115835 21.3107 0.0025911 22.4034 0.45521C23.4961 0.907828 24.4301 1.67431 25.0872 2.65773C25.7443 3.64115 26.095 4.79734 26.095 5.98009C26.0921 7.56522 25.4612 9.08461 24.3403 10.2055C23.2195 11.3263 21.7001 11.9573 20.1149 11.9602ZM20.1149 2.17458C19.3623 2.17458 18.6265 2.39777 18.0007 2.81592C17.3749 3.23408 16.8871 3.82842 16.5991 4.52378C16.3111 5.21915 16.2357 5.98431 16.3825 6.72251C16.5294 7.4607 16.8918 8.13878 17.424 8.67099C17.9562 9.2032 18.6343 9.56564 19.3725 9.71248C20.1107 9.85931 20.8759 9.78395 21.5712 9.49592C22.2666 9.20789 22.8609 8.72013 23.2791 8.09432C23.6973 7.4685 23.9204 6.73275 23.9204 5.98009C23.9204 4.9708 23.5195 4.00286 22.8058 3.28919C22.0922 2.57552 21.1242 2.17458 20.1149 2.17458ZM29.3569 29.3568H10.873C10.5846 29.3568 10.3081 29.2422 10.1042 29.0383C9.90025 28.8344 9.7857 28.5579 9.7857 28.2695C9.7857 27.9811 9.90025 27.7046 10.1042 27.5007C10.3081 27.2968 10.5846 27.1822 10.873 27.1822H28.2696V21.1151C28.2667 19.53 27.6358 18.0106 26.5149 16.8898C25.394 15.7689 23.8746 15.1379 22.2895 15.1351H17.9404C16.7892 15.1399 15.6638 15.477 14.6995 16.1057C13.7351 16.7345 12.9728 17.6282 12.5039 18.6796C12.4514 18.8184 12.371 18.9451 12.2677 19.0516C12.1644 19.1582 12.0404 19.2425 11.9033 19.2994C11.7662 19.3562 11.6188 19.3844 11.4704 19.3821C11.322 19.3798 11.1756 19.3472 11.0403 19.2863C10.905 19.2253 10.7836 19.1372 10.6836 19.0276C10.5835 18.9179 10.507 18.7889 10.4588 18.6485C10.4105 18.5082 10.3915 18.3594 10.4029 18.2114C10.4143 18.0634 10.4559 17.9194 10.5251 17.788C11.1647 16.3501 12.2078 15.1286 13.5279 14.2717C14.8479 13.4148 16.3883 12.9593 17.9621 12.9605H22.3113C24.474 12.9605 26.5482 13.8196 28.0775 15.3489C29.6068 16.8782 30.4659 18.9524 30.4659 21.1151V28.2695C30.466 28.4141 30.4371 28.5573 30.3811 28.6907C30.3251 28.824 30.2431 28.9449 30.1398 29.0461C30.0365 29.1474 29.9141 29.227 29.7797 29.2803C29.6452 29.3337 29.5015 29.3597 29.3569 29.3568Z" fill="#00ABE1"/>
<path d="M15.222 29.3568H1.08729C0.798922 29.3568 0.522365 29.2422 0.318459 29.0383C0.114553 28.8344 0 28.5578 0 28.2695V24.464C0 22.3012 0.859149 20.2271 2.38845 18.6978C3.91774 17.1685 5.99191 16.3093 8.15466 16.3093C10.3174 16.3093 12.3916 17.1685 13.9209 18.6978C15.4502 20.2271 16.3093 22.3012 16.3093 24.464V28.2695C16.3093 28.5578 16.1948 28.8344 15.9909 29.0383C15.787 29.2422 15.5104 29.3568 15.222 29.3568ZM2.17458 27.1822H14.1347V24.464C14.1347 22.878 13.5047 21.3569 12.3832 20.2354C11.2617 19.1139 9.74068 18.4839 8.15466 18.4839C6.56865 18.4839 5.04759 19.1139 3.9261 20.2354C2.80462 21.3569 2.17458 22.878 2.17458 24.464V27.1822Z" fill="#00ABE1"/>
<path d="M5.43592 26.095C5.14755 26.095 4.871 25.9805 4.66709 25.7766C4.46319 25.5727 4.34863 25.2961 4.34863 25.0078V22.8332C4.34863 22.5448 4.46319 22.2683 4.66709 22.0643C4.871 21.8604 5.14755 21.7459 5.43592 21.7459C5.72429 21.7459 6.00084 21.8604 6.20475 22.0643C6.40866 22.2683 6.52321 22.5448 6.52321 22.8332V25.0078C6.52321 25.2961 6.40866 25.5727 6.20475 25.7766C6.00084 25.9805 5.72429 26.095 5.43592 26.095ZM25.0071 25.9319C24.7187 25.9319 24.4422 25.8174 24.2383 25.6135C24.0344 25.4096 23.9198 25.133 23.9198 24.8447V22.6701C23.9198 22.3817 24.0344 22.1052 24.2383 21.9013C24.4422 21.6973 24.7187 21.5828 25.0071 21.5828C25.2955 21.5828 25.572 21.6973 25.7759 21.9013C25.9798 22.1052 26.0944 22.3817 26.0944 22.6701V24.8447C26.0944 25.133 25.9798 25.4096 25.7759 25.6135C25.572 25.8174 25.2955 25.9319 25.0071 25.9319Z" fill="#00ABE1"/>
</svg>
