<svg width="20" height="16" viewBox="0 0 20 16" fill="none" xmlns="http://www.w3.org/2000/svg">
<g clip-path="url(#clip0_1_1907)">
<path fill-rule="evenodd" clip-rule="evenodd" d="M6.29 15.9999C13.837 15.9999 17.965 9.84382 17.965 4.50482C17.965 4.32982 17.965 4.15584 17.953 3.98284C18.7544 3.41254 19.4477 2.70399 20 1.89007C19.2505 2.21771 18.4565 2.4321 17.644 2.52679C18.497 2.02578 19.1383 1.2314 19.448 0.291925C18.6407 0.762943 17.7596 1.09425 16.842 1.27191C16.0892 0.489598 15.0599 0.033131 13.9747 0.000421204C12.8895 -0.0322886 11.8346 0.361556 11.036 1.0971C10.514 1.57773 10.1291 2.18842 9.92052 2.86663C9.71196 3.54484 9.68728 4.26609 9.849 4.95696C8.22359 4.87937 6.63217 4.4638 5.17612 3.73724C3.72008 3.01068 2.43133 1.98885 1.392 0.736749C0.868251 1.62612 0.708074 2.68333 0.944877 3.68792C1.18168 4.69252 1.79718 5.56702 2.663 6.12884C2.01078 6.11033 1.37228 5.93737 0.8 5.62396V5.67474C0.801 7.59774 2.178 9.2537 4.092 9.6347C3.48779 9.79722 2.85463 9.82114 2.24 9.70403C2.777 11.35 4.318 12.4767 6.073 12.5097C4.34672 13.843 2.16567 14.4448 0 14.185C1.88279 15.3724 4.06405 16.0008 6.29 15.997" fill="black"/>
</g>
<defs>
<clipPath id="clip0_1_1907">
<rect width="20" height="16" fill="white"/>
</clipPath>
</defs>
</svg>
